{"glyphs":{"0":{"ha":839,"x_min":46,"x_max":796,"o":"m 46 331 q 178 778 46 611 q 536 944 310 944 q 726 854 657 944 q 796 613 796 764 q 762 345 796 463 q 667 144 728 228 q 326 -29 539 -29 q 115 59 183 -29 q 46 331 46 147 m 292 236 q 338 96 292 96 q 417 144 379 96 q 486 275 456 193 q 551 676 551 454 q 540 785 551 751 q 497 819 528 819 q 428 765 465 819 q 361 626 392 711 q 292 236 292 433 z "},"1":{"ha":725,"x_min":8,"x_max":661,"o":"m 192 -15 q 103 -14 149 -14 q 14 -19 58 -14 q 8 29 8 3 q 40 118 8 85 q 119 151 71 151 l 194 151 l 311 676 q 179 633 268 633 q 100 675 135 633 q 60 769 65 714 q 572 943 265 806 l 617 890 l 482 151 l 517 151 q 643 167 600 151 q 661 86 661 136 q 624 6 661 36 q 526 -24 588 -24 q 281 -18 403 -24 l 192 -15 z "},"2":{"ha":779,"x_min":13,"x_max":733,"o":"m 13 206 l 186 339 l 294 428 q 390 517 350 475 q 464 661 464 590 q 437 725 464 703 q 370 747 410 747 q 302 738 331 747 q 249 714 274 729 q 171 626 196 679 q 113 657 136 628 q 90 728 90 686 q 117 810 90 771 q 190 881 143 850 q 434 944 293 944 q 654 883 575 944 q 733 718 733 822 q 695 569 733 640 q 556 426 657 499 l 406 321 l 315 261 l 200 190 l 249 185 q 340 181 282 181 q 447 187 399 181 q 538 206 496 193 q 658 265 629 231 q 685 226 674 254 q 697 163 697 197 q 618 15 697 58 q 376 -28 539 -28 q 179 -3 292 -28 q 21 35 67 21 l 13 206 z "},"3":{"ha":739,"x_min":-11,"x_max":696,"o":"m 474 501 q 657 275 657 454 q 547 61 657 146 q 239 -28 431 -28 q 57 16 125 -28 q -11 132 -11 60 q 43 249 -11 204 q 120 174 71 197 q 233 150 169 150 q 336 183 296 150 q 376 282 376 217 q 207 406 376 406 l 231 531 q 433 664 433 564 q 406 726 433 704 q 325 749 378 749 q 150 663 232 749 q 113 688 124 669 q 101 746 101 707 q 129 822 101 785 q 206 886 157 858 q 450 944 310 944 q 625 889 557 944 q 696 747 696 832 q 635 604 696 671 q 474 501 574 538 z "},"4":{"ha":779,"x_min":-10,"x_max":735,"o":"m 719 365 q 735 279 735 336 q 692 183 735 222 q 557 143 650 143 l 549 143 l 526 0 q 422 -28 489 -28 q 308 25 336 -28 q 297 61 297 44 q 300 103 297 81 l 310 156 l -10 189 l -10 364 l 510 946 l 510 944 l 511 946 l 704 925 q 583 351 639 658 l 615 351 q 719 365 694 351 m 139 361 l 349 354 q 440 713 394 558 l 139 361 z "},"5":{"ha":721,"x_min":-8,"x_max":704,"o":"m 247 571 q 378 578 328 578 q 481 560 428 578 q 572 511 533 542 q 658 356 658 443 q 627 200 658 269 q 542 81 596 131 q 251 -28 426 -28 q 58 13 125 -28 q -8 130 -8 53 q 40 249 -8 207 q 222 150 99 150 q 339 185 297 150 q 381 286 381 219 q 188 419 381 419 q 67 414 114 419 l 197 917 l 524 917 q 668 965 633 917 q 704 863 704 933 q 651 749 704 796 q 524 701 599 701 l 286 701 l 247 571 z "},"6":{"ha":796,"x_min":35,"x_max":763,"o":"m 713 714 q 572 768 671 768 q 372 678 443 768 q 300 503 322 615 q 384 594 336 563 q 499 625 432 625 q 608 601 565 625 q 676 539 650 578 q 726 364 726 467 q 690 189 726 261 q 596 68 653 117 q 469 -5 539 19 q 333 -29 399 -29 q 213 -8 267 -29 q 119 57 158 14 q 35 313 35 149 q 72 535 35 422 q 178 739 110 647 q 339 889 246 831 q 538 947 432 947 q 703 914 643 947 q 763 819 763 881 q 713 714 763 753 m 316 413 q 307 398 316 413 q 286 344 297 383 q 275 251 275 306 q 299 160 275 196 q 363 125 324 125 q 424 152 401 125 q 460 217 447 179 q 482 344 482 283 q 460 440 482 406 q 410 475 439 475 q 358 458 381 475 q 316 413 335 442 z "},"7":{"ha":697,"x_min":65,"x_max":756,"o":"m 525 735 q 289 682 399 682 q 122 719 179 682 q 65 822 65 757 q 77 893 65 863 q 119 961 89 924 q 322 919 133 933 q 417 917 372 917 l 725 917 l 756 800 l 692 700 l 629 593 l 544 436 q 455 244 475 304 q 431 161 435 185 q 422 97 422 126 q 438 51 422 67 q 328 -21 410 1 q 269 -28 301 -28 q 210 -15 238 -28 q 164 17 182 -3 q 129 106 129 58 q 143 188 129 154 q 176 254 157 222 l 525 735 z "},"8":{"ha":786,"x_min":3,"x_max":751,"o":"m 3 193 q 211 454 3 353 q 119 626 119 529 q 231 853 119 760 q 504 944 340 944 q 683 892 615 944 q 751 760 751 839 q 629 556 751 639 q 557 515 594 532 q 669 408 647 440 q 707 294 707 357 q 676 171 707 232 q 589 67 644 110 q 301 -28 472 -28 q 83 33 165 -28 q 3 193 3 94 m 294 378 q 224 232 224 324 q 247 150 224 183 q 313 117 269 117 q 388 149 356 117 q 421 229 421 181 q 392 296 421 272 l 294 378 m 471 583 q 547 704 547 619 q 524 778 547 749 q 457 807 500 807 q 385 782 414 807 q 357 725 357 757 q 389 644 357 671 l 471 583 z "},"9":{"ha":794,"x_min":33,"x_max":761,"o":"m 83 206 q 224 151 125 151 q 425 242 353 151 q 496 417 474 304 q 412 326 460 357 q 297 294 364 294 q 188 318 231 294 q 119 381 146 342 q 69 556 69 453 q 106 731 69 658 q 200 851 142 803 q 465 949 314 949 q 678 863 597 949 q 761 607 761 771 q 724 385 761 497 q 618 181 686 272 q 457 31 550 89 q 258 -28 364 -28 q 93 6 153 -28 q 33 100 33 39 q 83 206 33 167 m 336 703 q 330 684 336 703 q 319 627 324 665 q 314 551 314 589 q 335 479 314 514 q 386 444 357 444 q 438 461 415 444 q 481 507 461 478 q 521 647 521 571 q 497 759 521 724 q 433 794 472 794 q 372 767 394 794 q 336 703 349 740 z "}," ":{"ha":286,"x_min":0,"x_max":0,"o":""},"!":{"ha":403,"x_min":-14,"x_max":410,"o":"m -14 82 q 26 163 -14 135 q 124 192 65 192 q 219 163 182 192 q 256 82 256 135 q 215 0 256 29 q 115 -29 174 -29 q 22 0 57 -29 q -14 82 -14 29 m 61 343 q 64 367 61 353 l 172 925 q 285 944 224 944 q 378 906 346 944 q 410 809 410 867 q 388 687 410 751 q 338 557 365 622 q 288 424 311 492 q 264 286 265 357 q 176 250 232 250 q 91 276 121 250 q 61 343 61 301 z "},"\"":{"ha":611,"x_min":92,"x_max":640,"o":"m 92 640 q 146 1006 143 818 l 186 1011 q 222 1014 207 1014 q 317 984 283 1014 q 350 901 350 954 q 325 785 350 846 q 239 640 281 676 l 92 640 m 382 640 q 436 1006 433 818 l 476 1011 q 513 1014 497 1014 q 607 984 574 1014 q 640 901 640 954 q 615 785 640 846 q 529 640 571 676 l 382 640 z "},"#":{"ha":869,"x_min":25,"x_max":842,"o":"m 33 199 q 25 266 25 229 q 51 331 25 303 q 126 358 78 358 l 186 358 l 217 538 l 76 538 q 68 606 68 568 q 94 670 68 643 q 169 697 121 697 l 243 697 l 265 832 q 357 917 281 917 q 428 900 388 917 l 396 697 l 550 697 l 572 832 q 603 894 579 872 q 661 917 626 917 q 733 900 696 917 l 703 697 l 835 697 q 842 628 842 665 q 816 565 842 592 q 742 538 790 538 l 678 538 l 650 358 l 790 358 q 799 290 799 326 q 772 226 799 253 q 697 199 746 199 l 626 199 l 610 85 q 574 22 604 44 q 506 0 543 0 q 435 17 469 0 l 467 199 l 319 199 l 303 85 q 267 22 297 44 q 199 0 236 0 q 128 17 163 0 l 158 199 l 33 199 m 344 358 l 493 358 l 524 538 l 371 538 l 344 358 z "},"$":{"ha":782,"x_min":-10,"x_max":785,"o":"m 226 -25 q 53 24 115 -18 q -10 138 -10 67 q 33 254 -10 208 q 142 300 75 300 q 243 282 201 300 q 215 174 215 235 q 235 90 215 114 q 306 67 256 67 q 392 97 356 67 q 428 176 428 126 q 402 257 428 226 q 338 312 376 288 q 253 360 299 336 q 169 417 208 383 q 79 615 79 492 q 175 825 79 733 q 417 938 269 915 l 424 975 q 455 1058 435 1036 q 511 1079 475 1079 q 578 1072 547 1079 l 551 942 q 724 890 664 933 q 785 780 785 847 q 738 674 785 713 q 617 635 692 635 q 538 649 571 635 q 554 698 546 667 q 563 747 563 729 q 560 785 563 765 q 547 822 557 806 q 472 857 528 857 q 382 819 415 857 q 349 731 349 782 q 376 651 349 681 q 442 593 403 621 q 529 538 482 565 q 617 476 576 510 q 710 297 710 397 q 611 86 710 174 q 367 -21 514 1 l 360 -58 q 327 -141 347 -119 q 267 -162 307 -162 q 201 -156 226 -162 l 226 -25 z "},"%":{"ha":1439,"x_min":71,"x_max":1368,"o":"m 271 397 q 120 453 169 397 q 71 589 71 508 q 90 732 71 669 q 147 842 108 794 q 390 943 233 943 q 606 722 606 943 q 515 483 606 572 q 271 397 426 397 m 178 13 l 1014 894 q 1147 947 1067 947 q 1238 894 1217 947 l 403 19 q 282 -32 354 -32 q 219 -19 247 -32 q 178 13 192 -7 m 292 468 q 389 561 349 468 q 426 778 426 650 q 385 872 426 872 q 292 767 331 872 q 254 569 254 669 q 292 468 254 468 m 1032 -28 q 881 28 931 -28 q 832 164 832 83 q 851 307 832 244 q 908 417 869 369 q 1151 518 994 518 q 1351 400 1306 518 q 1368 290 1368 358 q 1344 162 1368 222 q 1278 58 1321 101 q 1032 -28 1188 -28 m 1054 43 q 1108 69 1083 43 q 1150 136 1133 94 q 1188 353 1188 226 q 1146 447 1188 447 q 1053 342 1094 447 q 1015 144 1015 246 q 1054 43 1015 43 z "},"&":{"ha":1018,"x_min":7,"x_max":953,"o":"m 604 24 q 329 -28 481 -28 q 106 42 196 -28 q 7 246 7 115 q 239 493 7 439 q 200 679 200 603 q 229 805 200 756 q 308 886 258 854 q 561 944 403 944 q 740 903 671 944 q 811 796 811 860 q 761 683 811 724 q 643 646 717 646 q 586 650 600 646 q 592 731 592 681 q 575 815 592 781 q 531 849 558 849 q 460 803 479 849 q 440 692 440 758 q 453 566 440 626 q 492 447 467 506 q 629 244 544 326 q 654 383 651 299 q 603 503 654 458 q 660 532 622 521 q 731 543 697 543 q 839 499 804 543 q 874 383 874 454 q 783 153 874 257 q 850 143 818 143 q 942 161 919 143 q 953 100 953 135 q 908 1 953 31 q 782 -28 863 -28 q 604 24 701 -28 m 286 388 q 256 303 256 357 q 268 215 256 249 q 300 156 281 181 q 403 101 344 101 q 486 113 456 101 q 286 388 369 222 z "},"'":{"ha":321,"x_min":92,"x_max":350,"o":"m 92 640 q 146 1006 143 818 l 186 1011 q 222 1014 207 1014 q 317 984 283 1014 q 350 901 350 954 q 325 785 350 846 q 239 640 281 676 l 92 640 z "},"(":{"ha":457,"x_min":15,"x_max":592,"o":"m 93 -126 q 75 -91 93 -126 q 36 37 57 -56 q 15 233 15 129 q 35 444 15 338 q 92 649 56 551 q 176 831 128 746 q 281 978 225 915 q 521 1111 401 1111 q 592 1083 572 1111 q 222 408 301 882 q 197 78 197 254 q 227 -101 197 -24 q 325 -250 257 -178 q 269 -278 317 -278 q 176 -237 222 -278 q 93 -126 129 -196 z "},")":{"ha":453,"x_min":-149,"x_max":424,"o":"m -149 -250 q 142 142 42 -121 q 242 754 242 399 q 212 934 242 857 q 115 1083 182 1011 q 133 1103 118 1094 q 164 1111 149 1111 q 263 1069 215 1111 q 346 958 310 1028 q 424 600 424 807 q 347 183 424 389 q 158 -144 274 -17 q -82 -278 38 -278 q -149 -250 -135 -278 z "},"*":{"ha":675,"x_min":81,"x_max":685,"o":"m 454 399 q 340 564 378 399 l 253 450 q 207 376 218 401 q 148 398 174 376 q 122 459 122 419 q 181 556 122 499 q 275 642 221 600 q 181 663 229 653 q 81 674 132 674 q 108 767 81 726 q 183 807 136 807 q 269 786 231 807 l 346 744 q 361 903 361 861 q 360 951 361 944 q 431 974 393 974 q 500 903 500 974 q 453 731 500 836 q 656 829 617 796 q 685 759 685 800 q 660 694 685 718 q 600 656 636 669 q 450 621 547 633 q 515 528 482 568 q 565 476 547 488 q 454 399 524 399 z "},"+":{"ha":657,"x_min":8,"x_max":606,"o":"m 14 264 q 8 315 8 281 q 37 377 8 349 q 110 406 65 406 l 239 406 l 267 554 q 306 622 276 597 q 374 647 336 647 q 436 638 411 647 l 392 406 l 599 406 l 603 383 q 606 364 606 374 q 574 290 606 317 q 489 264 542 264 l 364 264 l 331 93 q 224 8 313 8 q 163 18 192 8 l 213 264 l 14 264 z "},",":{"ha":342,"x_min":-99,"x_max":235,"o":"m -99 -179 q 8 81 8 -64 q -7 167 8 125 q 43 185 10 178 q 101 193 76 193 q 199 160 163 193 q 235 71 235 128 q 213 -32 235 14 q 153 -112 190 -78 q -39 -187 72 -187 q -99 -179 -61 -187 z "},"-":{"ha":544,"x_min":31,"x_max":472,"o":"m 75 225 q 31 318 31 257 q 47 378 31 351 q 97 410 64 406 l 371 410 q 431 438 417 410 q 463 399 453 425 q 472 344 472 372 q 451 290 472 317 q 397 260 429 263 l 143 260 q 100 251 114 260 q 75 225 86 242 z "},".":{"ha":357,"x_min":-18,"x_max":251,"o":"m -18 82 q 23 164 -18 135 q 122 193 64 193 q 216 164 181 193 q 251 82 251 135 q 212 1 251 29 q 114 -28 172 -28 q 19 1 56 -28 q -18 82 -18 29 z "},"/":{"ha":508,"x_min":-78,"x_max":572,"o":"m -78 -207 q -65 -146 -78 -182 l 389 1108 q 463 1113 414 1113 q 542 1099 513 1113 q 572 1046 572 1086 q 550 947 572 1011 l 108 -272 q 32 -278 97 -278 q -78 -207 -78 -278 z "},":":{"ha":417,"x_min":-1,"x_max":382,"o":"m -1 82 q 40 164 -1 135 q 139 193 81 193 q 233 164 197 193 q 268 82 268 135 q 228 1 268 29 q 131 -28 189 -28 q 35 1 72 -28 q -1 82 -1 29 m 113 625 q 153 707 113 678 q 253 736 194 736 q 347 707 311 736 q 382 625 382 678 q 342 544 382 572 q 244 515 303 515 q 149 544 186 515 q 113 625 113 572 z "},";":{"ha":407,"x_min":-72,"x_max":371,"o":"m -72 -179 q 35 81 35 -64 q 19 167 35 125 q 69 185 36 178 q 128 193 103 193 q 225 160 189 193 q 261 71 261 128 q 239 -32 261 14 q 179 -112 217 -78 q -12 -187 99 -187 q -72 -179 -35 -187 m 101 625 q 142 707 101 678 q 242 736 183 736 q 335 707 300 736 q 371 625 371 678 q 331 544 371 572 q 233 515 292 515 q 138 544 175 515 q 101 625 101 572 z "},"<":{"ha":476,"x_min":14,"x_max":458,"o":"m 14 319 l 289 603 q 389 647 333 647 q 430 635 410 647 q 458 599 450 622 l 407 549 l 203 338 l 332 164 q 349 120 349 143 q 342 78 349 97 q 319 44 335 60 q 232 7 289 10 l 14 319 z "},"=":{"ha":768,"x_min":64,"x_max":656,"o":"m 64 161 q 92 234 64 206 q 165 263 121 263 l 649 263 q 656 221 656 239 q 628 151 656 179 q 542 122 600 122 l 69 122 q 64 161 64 140 m 64 406 q 92 478 64 450 q 165 506 121 506 l 649 506 q 656 464 656 482 q 628 394 656 422 q 542 367 600 367 l 69 367 q 64 406 64 385 z "},">":{"ha":475,"x_min":-28,"x_max":417,"o":"m -28 57 l 64 147 l 228 318 l 136 442 q 99 490 115 468 q 82 535 82 513 q 89 576 82 557 q 111 611 96 596 q 199 649 143 646 l 417 336 l 142 53 q 42 8 97 8 q 1 21 21 8 q -28 57 -19 33 z "},"?":{"ha":728,"x_min":58,"x_max":743,"o":"m 58 82 q 99 164 58 135 q 199 193 140 193 q 292 164 257 193 q 328 82 328 135 q 288 1 328 29 q 190 -28 249 -28 q 95 1 132 -28 q 58 82 58 29 m 339 665 q 247 657 308 657 q 142 682 186 657 q 97 751 97 707 q 119 829 97 794 q 186 889 140 864 q 447 944 282 944 q 678 899 613 944 q 743 775 743 853 q 625 565 743 657 q 547 510 590 538 l 282 338 q 228 249 228 301 q 161 283 188 249 q 135 367 135 318 q 240 543 135 478 l 397 640 q 497 747 463 679 q 508 797 508 769 q 444 861 508 861 q 360 821 394 861 q 328 738 329 785 q 339 665 326 690 z "},"@":{"ha":1106,"x_min":21,"x_max":1060,"o":"m 740 221 q 776 168 740 168 q 875 249 832 168 q 915 422 915 328 q 838 660 915 585 q 597 736 760 736 q 438 700 514 736 q 303 599 361 664 q 210 446 244 535 q 175 253 175 357 q 264 37 175 101 q 521 -28 353 -28 q 653 -6 589 -28 q 751 40 717 15 q 765 23 758 36 q 771 0 771 10 q 719 -82 771 -53 q 500 -136 622 -136 q 292 -114 378 -136 q 147 -47 207 -92 q 21 214 21 46 q 72 458 21 344 q 210 655 124 571 q 408 787 296 739 q 625 835 519 835 q 807 810 731 835 q 939 739 883 786 q 1060 463 1060 640 q 971 192 1060 299 q 763 92 888 92 q 667 113 700 92 q 624 188 633 133 q 562 112 601 132 q 467 92 522 92 q 289 301 289 92 q 367 526 289 433 q 565 622 446 622 q 656 604 611 622 l 806 622 l 742 247 q 740 233 740 240 l 740 221 m 624 557 q 582 571 607 571 q 534 543 557 571 q 494 467 511 515 q 458 219 458 364 q 469 179 458 193 q 492 165 481 165 q 540 193 519 165 q 569 265 561 221 l 624 557 z "},"A":{"ha":843,"x_min":-78,"x_max":786,"o":"m 633 -28 q 439 225 456 -28 l 200 225 q 153 106 172 161 l 117 0 l -78 0 l 360 917 l 658 917 l 717 242 q 786 53 731 96 q 633 -28 746 -28 m 243 326 l 435 326 l 418 683 l 418 721 l 319 503 l 243 326 z "},"B":{"ha":885,"x_min":10,"x_max":833,"o":"m 10 7 l 185 917 q 454 931 349 931 q 628 922 560 931 q 742 889 696 913 q 833 722 833 844 q 772 592 833 651 q 653 525 715 538 q 767 464 719 514 q 817 329 817 411 q 699 78 817 171 q 349 -14 581 -14 q 10 7 189 -14 m 318 88 q 333 86 331 86 l 346 86 q 508 161 460 86 q 544 326 544 219 q 508 414 544 383 q 388 447 471 444 l 318 88 m 599 721 q 488 836 599 836 l 475 836 q 461 835 469 836 l 406 542 l 419 542 q 599 721 599 546 z "},"C":{"ha":876,"x_min":40,"x_max":894,"o":"m 749 288 q 785 205 785 261 q 760 109 785 149 q 689 39 736 69 q 410 -26 588 -26 q 137 66 233 -26 q 40 322 40 158 q 161 731 40 554 q 417 917 253 861 q 585 944 501 944 q 719 933 668 944 q 810 900 771 922 q 894 774 894 851 q 828 650 894 703 q 717 603 767 603 q 646 610 667 603 q 651 692 651 660 q 650 749 651 725 q 642 794 649 772 q 585 846 628 846 q 501 806 543 846 q 422 700 458 767 q 340 369 340 549 q 389 234 340 283 q 542 185 438 185 q 693 236 619 185 q 749 288 725 258 z "},"D":{"ha":972,"x_min":11,"x_max":925,"o":"m 925 576 q 283 -15 925 -15 q 11 10 181 -15 l 167 831 q 185 918 178 886 q 490 933 396 933 q 669 914 583 933 q 813 851 756 894 q 925 576 925 767 m 639 628 q 490 835 639 835 l 476 835 q 463 833 469 835 l 319 88 q 331 85 325 85 l 342 85 q 447 117 393 85 q 542 214 500 149 q 639 628 639 365 z "},"E":{"ha":747,"x_min":11,"x_max":781,"o":"m 617 214 q 643 126 643 181 q 588 12 643 51 q 444 -28 532 -28 q 318 -17 394 -28 q 122 7 168 7 q 58 5 76 7 q 11 0 40 3 l 182 917 l 781 917 q 740 788 781 832 q 618 743 699 743 q 456 781 538 743 l 413 538 l 660 538 q 624 423 660 464 q 527 382 588 382 q 429 396 467 382 q 388 414 392 410 l 338 151 q 433 147 371 147 q 617 214 540 147 z "},"F":{"ha":746,"x_min":8,"x_max":804,"o":"m 656 736 q 461 774 543 736 l 417 549 l 685 549 q 648 428 685 475 q 544 382 611 382 q 406 408 472 382 q 390 415 392 414 l 311 0 l 8 0 l 185 917 l 804 917 q 765 784 804 832 q 656 736 725 736 z "},"G":{"ha":911,"x_min":43,"x_max":890,"o":"m 867 472 q 767 -1 767 253 q 674 -28 729 -28 q 585 -2 619 -28 q 543 50 550 24 q 452 -7 508 14 q 336 -28 396 -28 q 224 -8 276 -28 q 132 54 172 11 q 43 328 43 149 q 192 772 43 606 q 615 944 344 944 q 869 847 803 944 q 890 780 890 817 q 874 712 890 743 q 833 656 858 681 q 700 600 774 600 q 643 610 671 600 q 649 700 649 651 q 645 771 649 749 q 633 811 642 793 q 576 849 615 849 q 492 806 536 849 q 414 694 449 764 q 338 351 338 539 q 371 204 338 265 q 471 138 407 138 q 513 149 493 138 q 542 168 533 160 l 586 447 l 867 472 z "},"H":{"ha":982,"x_min":8,"x_max":972,"o":"m 542 104 q 581 396 542 201 l 375 396 l 299 0 l 8 0 l 185 917 l 478 917 l 397 507 l 603 507 l 679 917 l 972 917 q 928 699 953 814 l 881 472 q 828 93 828 208 q 843 19 828 46 q 692 -28 774 -28 q 576 11 611 -28 q 542 104 542 50 z "},"I":{"ha":497,"x_min":8,"x_max":490,"o":"m 8 0 l 185 917 l 490 917 l 311 0 l 8 0 z "},"J":{"ha":494,"x_min":-151,"x_max":488,"o":"m -151 -192 q -36 -92 -81 -183 q 51 215 10 1 l 186 917 l 488 917 l 353 215 q 217 -164 301 -57 q 116 -242 172 -219 q -1 -264 60 -264 q -102 -242 -62 -264 q -151 -192 -142 -219 z "},"K":{"ha":965,"x_min":11,"x_max":1033,"o":"m 11 0 l 169 844 l 185 917 l 482 917 l 307 0 l 11 0 m 871 82 q 689 -28 833 -28 q 508 100 582 -28 q 419 436 433 228 q 678 831 572 715 q 885 940 779 940 q 983 910 942 940 q 1033 831 1024 879 q 964 796 986 811 q 833 661 908 754 l 707 510 q 664 457 676 474 q 747 225 685 340 q 871 82 807 115 z "},"L":{"ha":700,"x_min":13,"x_max":631,"o":"m 604 214 q 631 116 631 181 q 581 12 631 51 q 446 -28 532 -28 q 318 -17 396 -28 q 122 7 165 7 q 60 5 78 7 q 13 0 42 3 l 181 917 l 485 917 l 346 153 q 381 150 364 150 l 415 150 q 604 214 532 150 z "},"M":{"ha":1222,"x_min":-18,"x_max":1186,"o":"m -18 0 l 233 917 l 524 917 l 588 393 l 846 917 l 1089 917 l 1114 231 q 1186 53 1119 94 q 1126 -1 1171 25 q 1023 -28 1082 -28 q 929 -11 964 -28 q 875 33 894 6 q 840 179 840 83 l 840 608 l 567 0 l 394 0 l 297 624 l 142 0 l -18 0 z "},"N":{"ha":976,"x_min":14,"x_max":965,"o":"m 14 0 l 181 917 l 479 917 l 696 286 l 811 917 l 965 915 l 796 0 l 478 0 l 278 607 l 167 0 l 14 0 z "},"O":{"ha":986,"x_min":44,"x_max":942,"o":"m 44 339 q 181 767 44 601 q 576 946 325 946 q 850 858 758 946 q 942 583 942 769 q 797 135 942 300 q 414 -28 654 -28 q 135 66 226 -28 q 44 339 44 160 m 410 626 q 347 179 347 376 q 363 101 347 132 q 422 71 379 71 q 490 91 464 71 q 538 157 517 111 q 602 391 571 232 q 636 616 633 550 q 639 732 639 682 q 624 814 639 782 q 567 846 608 846 q 499 821 526 846 q 410 626 447 774 z "},"P":{"ha":890,"x_min":10,"x_max":907,"o":"m 567 926 q 907 686 907 926 q 822 475 907 554 q 593 396 739 396 q 472 435 525 396 q 431 474 447 451 q 585 535 532 474 q 639 718 639 597 q 519 839 639 839 l 486 839 q 471 838 478 839 l 311 0 l 10 0 l 181 910 q 415 925 329 924 q 567 926 501 926 z "},"Q":{"ha":976,"x_min":49,"x_max":971,"o":"m 188 83 q 308 57 236 57 q 441 101 381 57 q 544 225 501 144 q 633 671 633 396 q 554 846 633 846 q 472 800 513 846 q 400 681 432 754 q 331 315 331 513 q 350 251 331 275 q 404 226 369 226 q 361 153 399 183 q 276 122 324 122 q 106 192 164 122 q 49 390 49 263 q 88 617 49 517 q 194 790 126 717 q 356 904 263 863 q 561 946 450 946 q 933 583 933 946 q 808 163 933 322 q 467 -18 683 1 q 724 -46 594 -46 q 900 -3 825 -46 q 929 24 921 10 q 971 -88 971 -14 q 905 -206 971 -162 q 710 -249 839 -249 q 433 -189 582 -249 q 157 -18 285 -129 l 188 83 z "},"R":{"ha":946,"x_min":11,"x_max":906,"o":"m 11 0 l 181 913 q 519 928 318 928 q 813 869 719 928 q 906 694 906 811 q 845 503 906 576 q 681 406 785 429 q 758 197 704 290 q 867 82 808 110 q 803 -2 846 24 q 701 -28 761 -28 q 593 8 640 -28 q 508 108 546 43 q 421 474 429 250 l 431 474 q 585 530 533 476 q 636 696 636 583 q 518 842 636 836 l 488 842 q 468 840 475 842 l 308 0 l 11 0 z "},"S":{"ha":819,"x_min":3,"x_max":814,"o":"m 565 642 q 586 722 586 683 q 582 783 586 761 q 568 821 578 804 q 506 857 547 857 q 413 819 454 857 q 368 719 368 781 q 395 651 368 681 q 464 593 422 621 q 553 538 506 565 q 642 476 600 510 q 738 297 738 400 q 701 169 738 228 q 603 67 664 110 q 293 -28 469 -28 q 76 19 150 -28 q 3 136 3 65 q 101 294 3 263 q 172 304 129 304 q 263 286 214 304 q 240 178 240 229 q 319 67 240 67 q 413 104 371 67 q 456 184 456 142 q 428 257 456 226 q 361 312 401 288 q 274 360 321 336 q 188 417 228 383 q 93 615 93 493 q 132 756 93 694 q 233 860 171 818 q 512 944 358 944 q 740 899 665 944 q 814 775 814 853 q 761 664 814 707 q 660 628 715 628 q 565 642 604 628 z "},"T":{"ha":719,"x_min":88,"x_max":788,"o":"m 135 676 q 88 790 88 713 q 138 907 88 867 q 276 947 189 947 q 464 928 332 947 l 558 914 q 655 908 606 908 q 738 929 704 908 q 788 821 788 885 q 731 711 788 757 q 597 663 672 663 q 503 672 561 663 q 435 310 435 458 q 510 83 435 161 q 424 -3 475 21 q 295 -28 372 -28 q 170 15 218 -28 q 122 144 122 57 q 178 413 122 246 q 317 704 233 578 q 235 708 276 708 q 135 676 149 708 z "},"U":{"ha":929,"x_min":50,"x_max":925,"o":"m 50 206 q 64 329 50 260 l 176 917 l 483 917 l 372 325 q 360 212 360 260 q 380 139 360 164 q 438 114 400 114 q 499 124 475 114 q 542 157 522 133 q 603 325 579 204 l 715 917 l 925 917 l 814 326 q 668 50 775 129 q 358 -28 564 -28 q 122 39 204 -28 q 50 206 50 97 z "},"V":{"ha":850,"x_min":58,"x_max":929,"o":"m 58 861 q 210 944 99 944 q 374 880 322 944 q 426 667 426 815 l 426 171 l 764 915 l 929 915 l 497 0 l 172 0 l 131 667 q 106 790 126 740 q 58 861 86 840 z "},"W":{"ha":1375,"x_min":58,"x_max":1458,"o":"m 58 861 q 120 922 78 900 q 221 943 163 943 q 367 877 313 943 q 422 667 422 811 l 422 171 l 740 915 l 904 915 l 942 213 l 938 172 l 1268 915 l 1458 915 l 1014 0 l 718 0 l 690 422 l 507 0 l 172 0 l 131 667 q 106 791 126 742 q 58 861 86 840 z "},"X":{"ha":840,"x_min":-51,"x_max":904,"o":"m 67 865 q 240 942 132 942 q 372 908 326 942 q 449 789 418 874 l 507 624 l 717 915 l 904 915 l 564 464 l 651 217 q 705 120 671 161 q 769 72 739 79 q 694 -4 742 19 q 576 -28 646 -28 q 456 18 506 -28 q 369 167 407 64 l 329 278 l 119 0 l -51 0 l 268 443 l 168 722 q 124 815 146 783 q 67 865 101 846 z "},"Y":{"ha":828,"x_min":54,"x_max":926,"o":"m 236 408 q 54 865 196 785 q 131 922 83 901 q 235 942 178 942 q 335 922 292 942 q 406 858 378 901 q 458 581 458 776 l 458 481 q 625 831 542 725 q 815 939 710 939 q 885 917 857 939 q 926 864 913 896 q 717 681 819 817 q 547 354 614 544 l 465 0 l 156 0 l 236 408 z "},"Z":{"ha":801,"x_min":8,"x_max":796,"o":"m 317 -3 q 280 3 317 -3 q 204 15 243 10 q 124 21 165 21 q 63 0 83 21 q 14 99 31 24 q 8 154 8 119 q 94 303 8 229 l 528 658 q 276 688 349 688 q 138 656 204 688 q 100 788 100 717 q 152 894 100 858 q 292 931 204 931 q 372 925 331 931 q 456 914 414 919 l 538 901 q 630 896 578 896 q 740 910 682 896 q 796 781 796 861 q 729 631 796 683 l 257 253 q 526 225 358 225 q 663 267 610 225 q 692 210 686 236 q 699 148 699 185 q 686 81 699 111 q 647 29 674 51 q 478 -17 594 -17 q 317 -3 392 -17 z "},"[":{"ha":468,"x_min":-54,"x_max":600,"o":"m -54 -278 l 207 1111 l 600 1111 q 467 1019 583 1019 l 397 1019 l 172 -185 l 214 -185 q 303 -201 276 -185 q 331 -257 331 -218 q 329 -278 331 -272 l -54 -278 z "},"\\":{"ha":436,"x_min":74,"x_max":347,"o":"m 283 -146 q 248 -248 276 -218 q 149 -278 219 -278 q 74 -272 79 -278 l 138 950 q 167 1077 146 1053 q 218 1108 189 1101 q 293 1115 247 1115 q 347 1111 339 1115 l 283 -146 z "},"]":{"ha":465,"x_min":-143,"x_max":506,"o":"m -143 -278 q -104 -208 -135 -231 q -15 -186 -74 -186 l 54 -186 l 279 1018 l 224 1018 q 141 1035 164 1018 q 118 1093 118 1051 q 119 1111 118 1106 l 506 1111 l 244 -278 l -143 -278 z "},"^":{"ha":708,"x_min":-81,"x_max":636,"o":"m -81 444 q 92 605 11 483 q 236 917 174 726 l 465 917 q 513 613 468 740 q 636 435 557 486 q 528 390 611 406 q 471 386 504 386 q 408 403 438 386 q 356 460 378 419 q 292 744 317 529 q 161 469 225 551 q 7 385 94 385 q -51 401 -28 385 q -81 444 -74 417 z "},"_":{"ha":953,"x_min":25,"x_max":719,"o":"m 25 -157 q 54 -83 25 -111 q 128 -54 83 -54 l 713 -54 q 719 -96 719 -78 q 691 -167 719 -137 q 604 -196 663 -196 l 31 -196 q 25 -157 25 -178 z "},"`":{"ha":431,"x_min":-64,"x_max":314,"o":"m -47 868 q -64 925 -64 893 q -14 1018 -64 999 l 314 815 l 285 749 l 114 781 q -47 868 -3 801 z "},"a":{"ha":872,"x_min":22,"x_max":821,"o":"m 84 42 q 68 60 84 42 q 37 135 51 78 q 22 285 22 192 q 54 463 22 378 q 144 608 86 547 q 461 736 264 736 q 583 713 532 736 l 821 736 l 718 194 q 714 147 714 178 q 733 97 714 117 q 779 75 751 78 q 715 0 765 28 q 607 -28 664 -28 q 512 -6 550 -28 q 463 51 474 15 q 393 -6 440 17 q 283 -28 346 -28 q 168 -11 219 -28 q 84 42 117 6 m 377 606 q 369 593 377 606 q 347 538 361 581 q 310 383 333 496 q 288 189 288 269 q 300 85 288 108 q 335 61 313 61 q 412 103 379 61 q 457 221 444 146 l 531 628 q 467 653 501 653 q 413 642 433 653 q 377 606 393 631 z "},"b":{"ha":853,"x_min":6,"x_max":793,"o":"m 6 67 l 178 972 l 460 1000 l 417 788 q 382 676 401 722 q 479 731 413 715 q 522 736 499 736 q 722 658 651 736 q 793 428 793 579 q 681 107 793 231 q 340 -28 560 -28 q 75 22 189 -28 q 6 67 35 40 m 285 79 q 350 54 314 54 q 407 68 386 54 q 443 110 428 82 q 518 414 485 185 q 528 544 528 479 q 513 631 528 610 q 471 651 499 651 q 358 486 386 651 l 285 79 z "},"c":{"ha":719,"x_min":24,"x_max":706,"o":"m 706 578 q 657 483 706 519 q 529 447 608 447 q 476 457 496 447 q 497 538 492 493 q 501 596 501 583 q 461 654 501 654 q 402 619 433 654 q 344 531 371 585 q 286 279 286 406 q 313 178 286 210 q 397 147 339 147 q 542 214 478 147 q 569 258 560 235 q 622 154 622 231 q 536 25 622 76 q 306 -28 447 -28 q 24 271 24 -28 q 147 614 24 489 q 486 736 267 736 q 706 578 706 736 z "},"d":{"ha":868,"x_min":22,"x_max":874,"o":"m 461 736 q 550 725 511 736 q 554 746 551 731 l 561 789 q 575 863 567 817 l 597 972 l 874 1000 l 719 194 q 718 172 718 186 l 718 150 q 733 97 718 119 q 774 74 749 74 q 661 -19 746 8 q 591 -28 632 -28 q 513 -6 550 -28 q 464 51 475 15 q 397 -6 442 15 q 288 -28 353 -28 q 170 -11 224 -28 q 83 42 117 6 q 22 274 22 113 q 144 608 22 482 q 461 736 267 736 m 451 653 q 426 653 451 653 q 372 597 400 653 q 316 404 344 542 q 288 143 288 267 q 338 58 288 58 q 413 103 382 58 q 457 221 444 147 l 532 628 q 451 653 503 653 z "},"e":{"ha":739,"x_min":21,"x_max":715,"o":"m 586 235 q 621 159 621 211 q 594 74 621 107 q 525 18 568 40 q 340 -28 436 -28 q 188 -7 244 -28 q 94 53 132 14 q 21 261 21 126 q 135 599 21 471 q 469 736 257 736 q 667 681 601 736 q 715 571 715 639 q 293 326 715 326 q 288 260 288 290 q 316 172 288 196 q 397 147 344 147 q 506 172 450 147 q 586 235 563 196 m 303 386 q 458 447 401 386 q 515 599 515 506 q 503 648 515 631 q 468 665 492 665 q 424 656 444 665 q 383 617 404 647 q 303 386 332 547 z "},"f":{"ha":531,"x_min":22,"x_max":783,"o":"m 565 806 q 585 875 585 839 q 546 939 585 939 q 461 817 486 939 l 440 708 l 567 708 l 558 646 l 428 646 l 303 0 l 22 -28 l 156 646 l 57 646 l 69 708 l 167 708 l 196 818 q 328 967 221 919 q 536 1000 406 1000 q 725 967 667 1000 q 783 889 783 933 q 749 817 783 844 q 675 789 714 789 q 565 806 599 789 z "},"g":{"ha":832,"x_min":-47,"x_max":801,"o":"m 122 581 q 146 614 122 581 q 241 692 169 647 q 400 736 313 736 q 529 708 488 736 l 801 736 l 707 203 q 556 -176 658 -69 q 265 -278 457 -278 q 36 -232 119 -278 q -47 -110 -47 -186 q -4 -20 -47 -53 q 106 13 39 13 q 208 -14 164 13 q 247 -47 235 -28 q 215 -121 215 -75 q 271 -181 215 -181 q 417 39 364 -181 q 444 158 432 99 q 240 82 382 82 q 85 129 142 82 q 28 288 28 176 q 51 435 28 357 q 122 581 75 514 m 303 283 q 351 189 303 189 q 417 225 385 189 q 451 297 442 254 l 522 654 q 508 658 515 656 q 476 664 494 664 q 342 525 392 664 q 303 283 303 417 z "},"h":{"ha":874,"x_min":-11,"x_max":790,"o":"m 722 154 q 785 75 722 93 q 710 -4 769 24 q 605 -28 660 -28 q 522 -13 550 -28 q 478 25 493 1 q 453 129 453 61 q 475 281 453 169 l 494 386 q 518 551 518 507 q 475 629 518 629 q 386 550 421 629 q 363 474 372 519 l 268 0 l -11 -28 l 185 972 l 464 1000 l 453 944 q 381 658 414 731 q 601 736 458 736 q 781 636 753 736 q 790 576 790 604 q 788 527 790 549 q 779 467 786 506 l 761 367 l 729 210 q 722 154 722 178 z "},"i":{"ha":451,"x_min":24,"x_max":451,"o":"m 357 76 q 176 -28 314 -28 q 61 21 106 -28 q 24 107 24 64 q 75 439 24 219 l 126 708 l 408 736 l 324 297 q 300 158 300 194 q 357 76 300 79 m 151 901 q 197 985 151 956 q 307 1014 242 1014 q 412 985 372 1014 q 451 901 451 956 q 408 819 451 847 q 299 792 364 792 q 192 819 233 792 q 151 901 151 847 z "},"j":{"ha":440,"x_min":-169,"x_max":457,"o":"m -169 -165 q -44 -69 -97 -160 q 22 128 -4 0 l 135 708 l 414 736 l 296 128 q 179 -181 250 -104 q 93 -236 142 -222 q -11 -250 44 -250 q -169 -165 -128 -250 m 157 901 q 202 985 157 956 q 313 1014 247 1014 q 417 985 378 1014 q 457 901 457 956 q 413 819 457 847 q 304 792 369 792 q 198 819 239 792 q 157 901 157 847 z "},"k":{"ha":839,"x_min":-11,"x_max":799,"o":"m 382 658 q 615 736 457 736 q 751 690 703 736 q 799 558 799 643 q 751 412 799 472 q 614 326 703 351 q 631 269 621 299 l 650 214 q 697 118 676 143 q 746 85 718 93 q 675 -3 731 28 q 569 -28 631 -28 q 367 249 390 -28 q 363 326 363 288 q 481 411 432 346 q 529 553 529 476 q 475 629 529 629 q 406 586 436 629 q 361 469 375 543 l 269 0 l -11 -28 l 183 972 l 463 1000 l 431 835 q 382 658 410 718 z "},"l":{"ha":450,"x_min":25,"x_max":457,"o":"m 356 76 q 175 -28 313 -28 q 61 21 106 -28 q 25 107 25 61 q 74 439 25 211 l 175 972 l 457 1000 l 322 297 q 299 158 299 194 q 356 76 299 79 z "},"m":{"ha":1279,"x_min":-11,"x_max":1196,"o":"m 1024 -28 q 856 103 856 -28 q 880 270 856 160 q 913 425 904 381 q 932 558 932 526 q 879 629 932 629 q 811 581 844 629 q 763 438 778 533 l 676 0 l 406 -28 l 481 350 q 504 483 493 413 q 515 565 515 554 q 468 629 515 629 q 401 582 436 629 q 347 438 367 535 l 263 0 l -11 -28 l 135 708 l 361 736 l 338 596 q 440 703 374 671 q 611 736 507 736 q 710 707 671 736 q 761 631 749 678 q 845 708 785 679 q 980 736 906 736 q 1091 720 1054 736 q 1150 678 1128 704 q 1188 540 1188 629 q 1150 271 1188 453 q 1131 149 1131 182 q 1149 97 1131 117 q 1196 75 1168 78 q 1134 0 1182 28 q 1024 -28 1086 -28 z "},"n":{"ha":871,"x_min":-11,"x_max":783,"o":"m 611 -28 q 443 103 443 -28 q 456 200 444 139 l 481 328 q 518 549 518 508 q 471 629 518 629 q 350 422 392 629 l 268 0 l -11 -28 l 133 710 l 361 736 l 339 600 q 604 736 404 736 q 742 695 701 736 q 783 563 783 654 q 739 275 783 476 q 718 151 718 185 q 737 97 718 117 q 783 75 756 78 q 722 0 769 28 q 611 -28 674 -28 z "},"o":{"ha":821,"x_min":21,"x_max":763,"o":"m 326 -28 q 21 260 21 -28 q 133 596 21 464 q 460 736 253 736 q 686 667 610 736 q 763 451 763 597 q 643 100 763 229 q 326 -28 526 -28 m 363 576 q 354 558 363 576 q 333 483 346 539 q 303 338 319 426 q 286 139 286 249 q 298 79 286 103 q 342 56 310 56 q 394 71 374 56 q 429 122 414 86 q 479 305 457 186 q 503 475 501 424 q 506 565 506 526 q 494 628 506 603 q 452 653 483 653 q 400 633 421 653 q 363 576 379 614 z "},"p":{"ha":853,"x_min":-58,"x_max":793,"o":"m 671 95 q 642 66 671 95 q 533 4 613 36 q 374 -28 453 -28 q 267 -14 294 -28 l 224 -250 l -58 -278 l 133 708 l 360 732 l 342 636 q 521 735 400 735 q 729 647 657 735 q 793 447 793 568 q 761 240 793 326 q 671 95 729 154 m 283 78 q 349 53 313 53 q 406 67 385 53 q 442 108 426 81 q 517 411 483 183 q 526 543 526 478 q 512 629 526 608 q 469 650 497 650 q 357 485 385 650 l 283 78 z "},"q":{"ha":857,"x_min":22,"x_max":829,"o":"m 418 4 q 299 -28 372 -28 q 173 -11 226 -28 q 86 42 119 6 q 22 274 22 111 q 144 608 22 479 q 461 736 264 736 q 583 713 532 736 l 829 736 l 640 -250 l 360 -278 l 418 4 m 336 58 q 411 102 379 58 q 457 221 443 146 l 531 628 q 467 653 501 653 q 413 642 433 653 q 378 606 393 631 q 306 351 338 540 q 288 149 288 239 q 336 58 288 58 z "},"r":{"ha":724,"x_min":-10,"x_max":725,"o":"m 458 390 q 508 569 508 479 q 465 629 508 629 q 397 572 432 629 q 350 442 361 515 l 278 0 l -10 -28 l 132 708 l 361 736 l 336 596 q 557 736 404 736 q 681 694 638 736 q 725 567 725 653 q 669 428 725 482 q 517 374 613 374 q 458 390 475 374 z "},"s":{"ha":675,"x_min":-22,"x_max":647,"o":"m 439 488 q 458 583 458 539 q 392 665 458 665 q 328 634 357 665 q 300 564 300 603 q 322 514 300 536 q 436 433 354 483 q 549 342 518 383 q 581 245 581 301 q 553 138 581 189 q 478 50 526 86 q 207 -28 374 -28 q 47 19 117 -28 q -22 119 -22 65 q 17 206 -22 174 q 115 238 57 238 q 210 215 174 238 q 192 139 192 169 q 269 47 192 47 q 325 68 303 47 q 347 125 347 89 q 228 271 347 196 q 108 360 131 335 q 71 460 71 404 q 97 568 71 515 q 172 658 124 621 q 450 736 274 736 q 594 700 540 736 q 647 603 647 664 q 610 507 647 542 q 507 472 574 472 q 439 488 461 472 z "},"t":{"ha":501,"x_min":46,"x_max":532,"o":"m 46 139 q 65 271 46 176 l 139 646 l 57 646 l 63 688 q 390 860 229 738 l 457 860 l 424 708 l 532 708 l 519 646 l 413 646 l 342 271 q 324 156 324 185 q 382 75 324 89 q 318 0 368 28 q 197 -28 268 -28 q 86 17 126 -28 q 46 139 46 61 z "},"u":{"ha":882,"x_min":26,"x_max":831,"o":"m 469 58 q 238 -28 403 -28 q 89 24 151 -28 q 26 151 26 76 q 31 214 26 193 l 124 708 l 406 736 l 304 200 q 299 151 299 169 q 347 71 299 71 q 440 144 401 71 q 458 199 453 168 l 557 708 l 831 736 l 728 194 q 724 151 724 174 q 736 105 724 129 q 789 75 749 81 q 751 19 781 42 q 624 -28 690 -28 q 519 -4 558 -28 q 469 58 481 19 z "},"v":{"ha":790,"x_min":28,"x_max":776,"o":"m 528 685 q 653 736 574 736 q 739 710 701 736 q 776 634 776 683 q 761 532 776 585 q 722 425 746 479 q 610 232 675 319 q 430 39 518 106 q 246 -28 342 -28 q 121 -10 168 -28 q 102 386 113 282 q 83 547 92 490 q 28 685 69 658 q 91 724 60 713 q 187 736 122 736 q 297 685 251 736 q 352 545 343 635 q 361 347 361 456 q 353 108 361 239 q 442 232 396 139 q 526 517 504 361 q 533 614 533 564 q 528 685 533 664 z "},"w":{"ha":1236,"x_min":29,"x_max":1222,"o":"m 1060 232 q 880 39 968 106 q 701 -28 792 -28 q 578 -10 610 -28 l 578 296 q 357 3 499 85 q 257 -28 306 -28 q 124 -10 164 -28 q 106 397 114 308 q 90 539 97 485 q 29 692 76 647 q 172 736 89 736 q 356 536 333 736 q 361 439 361 489 q 344 103 361 364 q 413 173 378 118 q 478 303 449 228 q 543 626 543 476 q 537 675 543 650 q 524 707 531 700 q 647 736 572 736 q 756 685 721 736 q 801 542 792 635 q 813 353 813 424 q 803 108 813 254 q 929 322 872 158 q 986 603 986 486 q 978 685 986 654 q 1103 736 1024 736 q 1187 710 1151 736 q 1222 634 1222 683 q 1208 532 1222 585 q 1169 425 1193 479 q 1060 232 1124 317 z "},"x":{"ha":769,"x_min":-25,"x_max":756,"o":"m 208 -4 q 103 -28 164 -28 q 8 3 42 -28 q -25 95 -25 35 q 17 215 -25 156 q 123 307 60 274 q 231 360 186 340 l 143 561 q 75 613 119 613 l 64 611 l 60 611 q 125 697 68 660 q 247 736 182 736 q 401 631 353 736 l 413 608 l 472 461 q 526 509 510 478 q 542 602 542 540 q 508 703 542 664 q 631 736 561 736 q 756 615 756 736 q 590 407 756 483 l 507 368 l 582 175 q 644 92 604 117 q 681 79 661 81 q 549 -19 639 11 q 483 -28 521 -28 q 403 -2 446 -28 q 344 64 360 24 l 268 263 q 190 101 190 228 q 208 -4 190 43 z "},"y":{"ha":858,"x_min":-26,"x_max":832,"o":"m 465 157 q 261 82 393 82 q 61 203 96 82 q 50 279 50 239 q 58 361 50 319 l 124 708 l 406 736 l 329 332 q 322 294 326 314 q 318 255 318 275 q 325 222 318 235 q 342 200 332 208 q 388 189 358 189 q 444 225 418 189 q 482 324 469 261 l 558 708 l 832 736 l 728 190 q 571 -182 676 -76 q 447 -258 517 -236 q 286 -279 376 -279 q 57 -233 140 -279 q -26 -111 -26 -187 q 17 -22 -26 -54 q 126 11 60 11 q 229 -14 185 11 q 268 -49 256 -29 q 236 -122 236 -76 q 292 -183 236 -183 q 436 28 383 -183 q 465 157 451 90 z "},"z":{"ha":700,"x_min":-8,"x_max":674,"o":"m 291 -14 q 258 -7 291 -14 q 191 6 225 0 q 117 13 157 13 q 39 -1 78 13 q 5 36 18 11 q -8 100 -8 61 q 75 244 -8 182 l 428 499 q 240 526 329 526 q 118 465 150 526 q 71 608 71 521 q 113 705 71 667 q 244 743 156 743 q 340 737 294 743 q 425 725 385 731 l 500 714 q 573 708 536 708 q 638 724 610 708 q 674 644 674 690 q 585 497 674 572 l 233 235 q 397 203 342 203 q 564 258 514 203 q 603 137 603 214 q 553 16 603 60 q 413 -28 503 -28 q 291 -14 357 -28 z "},"{":{"ha":511,"x_min":-4,"x_max":621,"o":"m -4 382 l 15 482 q 172 618 147 482 l 232 947 q 305 1072 247 1032 q 467 1111 363 1111 q 621 1100 561 1111 l 606 1019 l 564 1019 q 472 989 504 1019 q 429 892 440 958 l 374 582 q 322 481 361 514 q 204 439 283 449 q 292 413 271 431 q 318 379 313 396 q 324 339 324 363 q 319 290 324 315 l 257 -26 q 250 -86 250 -58 q 339 -185 250 -185 l 381 -185 l 364 -267 q 208 -278 289 -278 q 28 -153 28 -278 q 33 -107 28 -135 l 103 247 q 107 293 107 272 q -4 382 106 382 z "},"|":{"ha":368,"x_min":-58,"x_max":410,"o":"m -58 -278 l 213 1111 l 410 1111 l 144 -278 l -58 -278 z "},"}":{"ha":511,"x_min":-125,"x_max":508,"o":"m -125 -267 l -110 -186 l -68 -186 q 24 -156 -8 -186 q 68 -58 56 -125 l 132 283 q 183 384 144 351 q 300 426 221 417 q 213 452 233 435 q 186 486 192 469 q 181 526 181 503 q 185 575 181 550 l 239 860 q 246 919 246 892 q 157 1018 246 1018 l 115 1018 l 132 1100 q 265 1111 207 1111 q 356 1104 324 1111 q 411 1082 388 1097 q 463 982 463 1049 l 463 963 q 460 940 463 951 l 401 618 q 397 572 397 593 q 508 483 399 483 l 489 383 q 332 247 357 383 l 264 -114 q 29 -278 233 -278 q -125 -267 -65 -278 z "},"~":{"ha":700,"x_min":31,"x_max":622,"o":"m 61 239 q 31 317 31 278 q 71 384 31 357 q 185 411 111 411 q 261 403 218 411 l 350 386 l 432 368 q 497 360 471 360 q 553 372 524 360 q 593 404 582 383 q 622 329 622 371 q 583 258 622 288 q 472 229 543 229 q 353 246 433 229 q 167 278 199 278 q 105 267 136 278 q 61 239 74 257 z "}," ":{"ha":286,"x_min":0,"x_max":0,"o":""},"¡":{"ha":396,"x_min":-47,"x_max":376,"o":"m 78 -237 q 47 -237 78 -237 q -15 -199 17 -237 q -47 -102 -47 -160 q -25 20 -47 -44 q 24 150 -3 85 q 74 283 51 215 q 99 421 97 350 q 186 457 131 457 q 272 431 242 457 q 301 364 301 406 q 299 340 301 354 l 190 -218 q 78 -237 139 -237 m 107 625 q 148 707 107 678 q 247 736 189 736 q 341 707 306 736 q 376 625 376 678 q 337 544 376 572 q 239 515 297 515 q 144 544 181 515 q 107 625 107 572 z "},"¢":{"ha":726,"x_min":38,"x_max":721,"o":"m 585 349 q 638 244 638 322 q 569 126 638 174 q 411 68 508 83 l 406 36 q 374 -47 394 -25 q 313 -68 353 -68 q 247 -61 272 -68 l 272 65 q 93 162 149 82 q 38 352 38 242 q 65 543 38 463 q 143 682 93 624 q 421 822 243 800 l 426 850 q 457 932 436 910 q 515 954 478 954 q 581 947 553 954 l 556 822 q 721 668 721 804 q 674 574 721 611 q 544 538 628 538 q 492 547 514 538 q 522 685 522 624 q 483 746 522 746 q 410 701 443 746 q 353 595 378 657 q 315 470 329 533 q 301 357 301 407 q 325 272 301 307 q 413 238 349 238 q 500 261 464 238 q 585 349 565 300 z "},"£":{"ha":822,"x_min":-1,"x_max":826,"o":"m 36 -1 q -1 69 -1 28 q 12 131 0 110 q 43 167 24 151 l 61 181 q 126 260 119 219 l 165 475 l 60 475 q 53 519 53 493 q 78 562 53 544 q 146 579 104 579 l 185 579 l 206 696 q 328 878 226 811 q 586 944 429 944 q 757 906 689 944 q 826 808 826 864 q 674 679 826 679 q 603 697 632 679 q 626 782 626 740 q 579 856 626 856 q 517 810 547 856 q 475 696 488 765 l 456 579 l 653 579 q 661 535 661 558 q 635 493 661 511 q 556 475 610 475 l 438 475 l 422 386 q 351 247 407 292 q 221 186 296 203 l 408 175 q 506 169 478 171 q 550 167 533 167 l 585 167 q 696 214 638 167 q 722 128 722 161 q 707 63 722 94 q 664 6 692 31 q 521 -44 608 -44 q 354 -25 458 -44 q 112 14 158 14 q 36 -1 65 14 z "},"¤":{"ha":813,"x_min":57,"x_max":743,"o":"m 57 224 l 176 331 q 158 447 158 372 q 204 590 158 521 l 81 701 l 156 804 l 289 672 q 417 708 349 708 q 532 688 486 708 l 654 807 l 743 717 l 621 607 q 646 488 646 558 q 611 354 646 417 l 742 239 l 660 142 l 532 267 q 385 224 465 224 q 260 246 306 224 l 146 133 l 57 224 m 297 454 q 321 376 297 400 q 396 351 344 351 q 477 385 447 351 q 507 472 507 418 q 480 552 507 525 q 406 579 453 579 q 328 544 358 579 q 297 454 297 508 z "},"¥":{"ha":928,"x_min":100,"x_max":972,"o":"m 274 475 q 100 865 228 794 q 176 922 129 901 q 281 942 224 942 q 381 922 338 942 q 451 858 424 901 q 504 581 504 776 l 504 481 q 671 831 588 725 q 861 939 756 939 q 928 917 897 938 q 972 864 958 896 q 794 722 881 824 q 642 475 708 621 l 744 475 q 753 431 753 454 q 728 389 753 407 q 653 371 704 371 l 599 371 l 593 354 l 578 290 l 708 290 q 717 246 717 269 q 692 204 717 222 q 617 186 668 186 l 554 186 l 511 0 l 201 0 l 238 186 l 115 186 q 108 230 108 204 q 134 273 108 256 q 201 290 160 290 l 258 290 l 274 371 l 151 371 q 144 415 144 389 q 170 458 144 440 q 238 475 196 475 l 274 475 z "},"¦":{"ha":376,"x_min":0,"x_max":376,"o":"m 0 0 l 74 378 l 272 378 l 200 0 l 0 0 m 104 539 l 178 917 l 376 917 l 304 539 l 104 539 z "},"§":{"ha":647,"x_min":-43,"x_max":654,"o":"m 465 692 q 486 788 486 760 q 425 872 486 872 q 367 839 393 872 q 340 768 340 808 q 361 718 340 739 q 466 633 394 683 q 566 544 538 583 q 594 459 594 504 q 579 374 594 414 q 536 299 564 335 q 388 183 476 221 q 458 109 440 140 q 476 38 476 78 q 395 -176 476 -101 q 163 -250 314 -250 q 15 -211 74 -250 q -43 -110 -43 -171 q -10 -16 -43 -50 q 73 18 24 18 q 146 3 122 18 q 126 -93 126 -42 q 188 -178 126 -178 q 247 -144 219 -178 q 272 -74 272 -114 q 253 -26 272 -47 q 208 15 233 -4 l 143 63 q 45 153 74 110 q 17 251 17 196 q 67 406 17 342 q 221 513 117 469 q 153 585 171 553 q 135 657 135 617 q 216 870 135 796 q 450 944 297 944 q 597 906 539 944 q 654 806 654 867 q 620 710 654 744 q 526 676 586 676 q 465 692 486 676 m 235 433 q 227 421 235 433 q 211 393 218 410 q 204 361 204 376 q 208 335 204 346 q 224 310 211 324 q 326 229 244 286 q 381 269 357 238 q 406 325 406 301 q 403 358 406 349 q 350 414 396 379 l 285 464 q 235 433 253 456 z "},"¨":{"ha":631,"x_min":-67,"x_max":522,"o":"m 63 818 q 34 818 63 818 q -31 842 6 818 q -67 909 -67 865 q -27 976 -67 953 q 71 1000 13 1000 q 164 976 129 1000 q 199 909 199 953 q 160 842 199 865 q 63 818 121 818 m 387 818 q 358 818 387 818 q 293 842 329 818 q 257 909 257 865 q 297 976 257 953 q 394 1000 336 1000 q 488 976 453 1000 q 522 909 522 953 q 483 842 522 865 q 387 818 444 818 z "},"©":{"ha":1078,"x_min":22,"x_max":1025,"o":"m 22 249 q 69 483 22 374 q 199 675 117 593 q 390 805 281 757 q 622 853 499 853 q 919 759 814 853 q 1025 496 1025 665 q 979 256 1025 367 q 852 66 933 146 q 660 -60 771 -14 q 418 -106 549 -106 q 122 -16 222 -106 q 22 249 22 74 m 165 276 q 237 59 165 128 q 463 -10 308 -10 q 764 122 646 -10 q 882 457 882 253 q 804 677 882 600 q 582 754 726 754 q 417 718 493 754 q 285 617 340 682 q 165 276 165 479 m 599 454 q 617 545 617 497 q 589 593 617 593 q 511 503 550 593 q 472 342 472 410 q 490 251 472 274 q 542 229 507 229 q 606 250 578 229 q 649 307 633 271 q 683 232 683 289 q 628 142 683 179 q 490 104 572 104 q 294 314 294 104 q 378 561 294 469 q 606 651 460 651 q 753 540 753 651 q 720 474 753 500 q 648 447 688 447 q 599 454 608 447 z "},"ª":{"ha":688,"x_min":75,"x_max":665,"o":"m 79 219 q 75 261 75 236 q 96 307 75 286 q 149 328 117 328 l 561 328 q 565 285 565 308 q 545 240 565 261 q 483 219 525 219 l 79 219 m 179 846 q 199 867 179 846 q 276 913 219 889 q 389 936 332 936 q 493 917 446 936 l 665 936 l 592 547 q 589 535 589 539 l 589 526 q 601 480 589 497 q 631 463 613 463 q 584 411 621 433 q 509 389 547 389 q 444 405 471 389 q 408 446 417 421 q 355 406 392 422 q 282 389 318 389 q 142 444 190 389 q 94 590 94 500 q 117 741 94 679 q 179 846 139 803 m 325 773 q 316 748 325 773 q 296 656 307 722 q 285 518 285 589 q 322 447 285 447 q 371 481 349 447 q 403 568 393 515 l 460 868 q 416 883 440 883 q 367 853 392 883 q 325 773 343 824 z "},"«":{"ha":750,"x_min":33,"x_max":750,"o":"m 33 440 l 265 708 l 432 708 l 261 440 l 328 175 l 165 175 l 33 440 m 351 440 l 583 708 l 750 708 l 579 440 l 646 175 l 483 175 l 351 440 z "},"¬":{"ha":754,"x_min":17,"x_max":667,"o":"m 17 303 q 46 377 17 349 q 119 406 75 406 l 667 406 l 590 1 q 528 -4 579 -4 q 460 13 478 -4 q 442 56 442 31 q 444 94 442 81 l 449 128 l 474 264 l 22 264 q 17 303 17 282 z "},"®":{"ha":1078,"x_min":38,"x_max":1040,"o":"m 38 339 q 85 574 38 464 q 214 765 132 683 q 405 895 296 847 q 638 943 514 943 q 935 849 829 943 q 1040 586 1040 756 q 994 347 1040 457 q 867 156 949 236 q 675 31 786 76 q 433 -15 564 -15 q 138 74 238 -15 q 38 339 38 164 m 178 367 q 250 150 178 219 q 478 81 322 81 q 781 211 661 81 q 900 547 900 342 q 822 767 900 690 q 597 844 743 844 q 431 808 508 844 q 297 707 354 771 q 178 367 178 571 m 297 210 l 394 731 q 600 736 442 736 q 783 607 783 736 q 747 500 783 544 q 647 442 710 456 q 684 335 660 371 q 749 289 708 300 q 711 222 742 246 q 635 197 681 197 q 510 478 518 197 l 524 478 q 638 601 638 485 q 568 678 638 678 q 532 675 560 678 l 449 210 l 297 210 z "},"¯":{"ha":493,"x_min":-50,"x_max":383,"o":"m -47 858 q -50 905 -51 872 q -23 962 -49 938 q 43 986 3 986 l 378 986 q 383 939 383 969 q 357 883 383 908 q 278 858 331 858 l -47 858 z "},"°":{"ha":542,"x_min":83,"x_max":553,"o":"m 271 514 q 134 559 185 514 q 83 678 83 604 q 107 800 83 751 q 169 882 131 849 q 368 950 251 950 q 503 905 454 950 q 553 787 553 860 q 530 665 553 714 q 468 583 507 617 q 271 514 389 514 m 264 809 q 256 798 264 809 q 238 756 247 786 q 228 688 228 725 q 243 624 228 651 q 285 597 258 597 q 334 610 311 597 q 375 646 357 624 q 414 749 414 696 q 397 831 414 803 q 351 860 379 860 q 302 846 324 860 q 264 809 281 832 z "},"±":{"ha":638,"x_min":-17,"x_max":581,"o":"m -11 0 q -17 51 -17 21 q 8 104 -17 81 q 79 128 33 128 l 511 128 q 518 85 518 103 q 410 0 518 0 l -11 0 m 39 376 q 67 449 39 421 q 140 478 96 478 l 247 478 l 263 554 q 302 622 272 597 q 369 647 332 647 q 432 638 407 647 l 403 478 l 574 478 l 578 456 q 581 436 581 446 q 471 343 581 343 l 375 343 l 357 249 q 253 164 340 164 q 190 174 219 164 l 222 343 l 44 343 q 39 376 39 361 z "},"²":{"ha":493,"x_min":40,"x_max":451,"o":"m 40 349 l 139 425 l 201 476 q 256 526 233 503 q 298 609 298 568 q 282 645 298 632 q 244 658 267 658 q 205 653 222 658 q 175 639 189 647 q 131 589 145 619 q 98 606 111 590 q 85 647 85 623 q 100 694 85 671 q 142 734 115 716 q 281 770 200 770 q 406 735 361 770 q 451 641 451 700 q 429 556 451 597 q 350 475 408 516 l 264 415 l 213 381 l 147 340 l 175 337 q 227 335 194 335 q 288 338 260 335 q 340 349 316 342 q 408 383 392 363 q 424 361 417 377 q 431 325 431 344 q 386 241 431 265 q 248 216 340 216 q 135 230 200 216 q 45 252 71 244 l 40 349 z "},"³":{"ha":465,"x_min":28,"x_max":433,"o":"m 306 518 q 411 389 411 491 q 348 267 411 315 q 171 216 281 216 q 67 241 106 216 q 28 307 28 266 q 59 374 28 349 q 103 331 75 345 q 168 318 132 318 q 227 337 204 318 q 250 393 250 356 q 153 464 250 464 l 167 535 q 283 611 283 554 q 267 647 283 634 q 221 660 251 660 q 121 611 167 660 q 99 625 105 614 q 93 658 93 636 q 109 701 93 680 q 152 738 125 722 q 292 772 212 772 q 392 740 353 772 q 433 659 433 707 q 398 577 433 615 q 306 518 363 539 z "},"´":{"ha":431,"x_min":-50,"x_max":328,"o":"m 278 1022 q 328 931 328 1003 q 269 831 328 869 q 150 785 221 797 l -21 753 l -50 819 l 278 1022 z "},"µ":{"ha":901,"x_min":-31,"x_max":850,"o":"m 489 58 q 288 -28 419 -28 l 249 -250 l -31 -278 l 135 590 q 79 646 135 646 q 164 722 92 692 q 244 736 199 736 q 317 727 290 736 q 364 703 343 718 q 407 610 407 668 l 407 600 q 406 590 407 596 l 322 150 q 321 131 321 143 q 376 67 321 67 q 444 115 417 67 q 483 231 471 164 l 572 708 l 850 736 l 746 194 q 743 172 743 183 l 743 153 q 781 81 743 94 q 797 76 790 76 q 744 11 797 46 q 629 -28 688 -28 q 510 18 551 -28 q 489 58 494 35 z "},"¶":{"ha":1010,"x_min":44,"x_max":1060,"o":"m 407 372 q 267 351 357 351 q 126 406 178 351 q 74 550 74 460 q 105 712 74 640 q 192 833 136 783 q 508 938 310 938 q 649 917 589 938 l 464 -75 q 377 -229 438 -181 q 225 -278 317 -278 q 44 -172 44 -278 l 44 -164 q 49 -147 44 -160 q 178 -172 94 -172 q 274 -133 232 -172 q 328 -28 315 -93 l 407 372 m 1060 922 q 1026 835 1053 861 q 953 810 1000 810 q 882 817 907 810 l 732 0 l 579 -28 l 765 917 l 922 917 q 1060 922 1013 917 z "},"·":{"ha":372,"x_min":29,"x_max":299,"o":"m 161 217 q 64 246 99 217 q 29 326 29 275 q 68 407 29 376 q 168 438 107 438 q 264 408 229 438 q 299 327 299 378 q 261 247 299 276 q 161 217 224 217 z "},"¸":{"ha":667,"x_min":118,"x_max":463,"o":"m 250 -82 q 324 -79 272 -79 q 419 -111 376 -79 q 463 -190 463 -143 q 405 -312 463 -265 q 253 -358 347 -358 q 154 -339 190 -358 q 118 -286 118 -319 q 143 -233 118 -253 q 236 -278 169 -278 q 298 -262 276 -278 q 319 -218 319 -246 q 214 -153 319 -153 q 156 -156 186 -153 l 207 15 l 279 15 l 250 -82 z "},"¹":{"ha":468,"x_min":39,"x_max":414,"o":"m 144 223 q 94 224 120 224 q 43 221 68 224 q 39 249 39 234 q 57 300 39 281 q 103 319 75 319 l 146 319 l 213 620 q 137 595 188 595 q 92 619 112 595 q 69 673 72 641 q 362 773 187 694 l 388 742 l 311 319 l 331 319 q 403 327 378 319 q 413 281 413 310 q 392 236 413 253 q 336 218 371 218 q 195 222 265 218 l 144 223 z "},"º":{"ha":657,"x_min":60,"x_max":631,"o":"m 65 219 q 60 251 60 247 q 81 307 60 286 q 133 328 101 328 l 519 328 q 525 289 525 314 q 505 242 525 264 q 442 219 485 219 l 65 219 m 297 389 q 146 444 194 389 q 97 582 97 500 q 116 726 97 664 q 175 835 135 788 q 415 936 260 936 q 614 817 569 936 q 631 707 631 775 q 608 578 631 639 q 542 475 585 518 q 297 389 451 389 m 322 756 q 314 730 322 756 q 296 644 306 704 q 286 533 286 583 q 295 465 286 483 q 324 447 304 447 q 367 481 344 447 q 406 565 389 514 q 443 794 443 681 q 437 858 443 839 q 408 878 431 878 q 362 843 385 878 q 322 756 339 808 z "},"»":{"ha":749,"x_min":-1,"x_max":710,"o":"m -1 175 l 164 440 l 93 708 l 260 708 l 392 440 l 161 175 l -1 175 m 317 175 l 482 440 l 411 708 l 578 708 l 710 440 l 479 175 l 317 175 z "},"¼":{"ha":1132,"x_min":71,"x_max":1046,"o":"m 117 396 q 74 392 86 396 q 71 406 71 399 l 71 419 q 88 471 71 451 q 131 490 106 490 l 349 490 q 415 499 386 490 q 426 453 426 482 q 406 408 426 425 q 354 390 386 390 l 117 396 m 97 844 q 383 943 211 863 l 407 913 l 315 421 l 157 421 l 238 790 q 167 767 218 767 q 121 790 142 767 q 97 844 100 813 m 264 -86 q 272 -51 264 -72 l 726 997 q 769 1000 740 1000 q 815 992 797 1000 q 832 963 832 985 q 819 906 832 940 l 371 -122 q 328 -126 363 -126 q 264 -86 264 -126 m 1031 224 q 1046 168 1046 199 q 940 93 1046 101 l 926 0 q 864 -17 904 -17 q 797 42 797 -17 l 797 46 q 799 60 797 53 l 804 96 q 622 122 704 103 l 618 213 l 913 539 l 1028 528 q 960 204 992 376 q 1031 224 1007 208 m 706 210 q 824 203 775 203 q 878 407 849 319 l 706 210 z "},"½":{"ha":1133,"x_min":71,"x_max":1049,"o":"m 117 396 q 74 392 86 396 q 71 406 71 399 l 71 419 q 88 471 71 451 q 131 490 106 490 l 349 490 q 415 499 386 490 q 426 453 426 482 q 406 408 426 425 q 354 390 386 390 l 117 396 m 97 844 q 383 943 211 863 l 407 913 l 315 421 l 157 421 l 238 790 q 167 767 218 767 q 121 790 142 767 q 97 844 100 813 m 264 -86 q 272 -51 264 -72 l 726 997 q 769 1000 740 1000 q 815 992 797 1000 q 832 963 832 985 q 819 906 832 940 l 371 -122 q 328 -126 363 -126 q 264 -86 264 -126 m 1006 151 q 1028 85 1028 136 q 844 -15 1028 -15 q 643 19 763 -15 l 638 117 l 681 147 l 738 192 q 850 291 806 247 q 894 376 894 335 q 836 426 894 426 q 772 407 803 426 q 728 357 742 388 q 695 375 708 358 q 682 416 682 392 q 697 463 682 440 q 739 501 713 485 q 877 538 796 538 q 1003 503 958 538 q 1049 417 1049 469 q 1027 325 1049 365 q 947 243 1006 285 l 810 149 q 744 108 782 131 q 840 103 794 103 q 937 117 886 103 q 1006 151 988 131 z "},"¾":{"ha":1139,"x_min":46,"x_max":1056,"o":"m 326 685 q 432 554 432 657 q 369 431 432 479 q 190 378 301 378 q 85 403 124 378 q 46 471 46 429 q 78 539 46 514 q 183 481 107 481 q 247 501 224 481 q 271 557 271 521 q 172 629 271 629 l 186 701 q 303 779 303 721 q 244 828 303 828 q 139 778 186 828 q 111 825 111 783 q 171 906 111 872 q 303 940 231 940 q 415 908 375 940 q 456 830 456 876 q 420 744 456 783 q 326 685 385 706 m 274 -86 q 282 -51 274 -72 l 736 997 q 769 1000 750 1000 q 836 981 825 1000 q 842 958 842 974 q 829 906 842 942 l 381 -122 q 338 -126 372 -126 q 274 -86 274 -126 m 1040 224 q 1056 168 1056 199 q 950 93 1056 101 l 936 0 q 882 -17 915 -17 l 874 -17 q 807 42 807 -17 l 807 46 q 808 60 807 53 l 814 96 q 632 122 714 103 l 628 213 l 922 539 l 928 539 l 1038 528 q 969 204 1001 376 q 1040 224 1017 208 m 715 210 q 833 203 785 203 q 888 407 858 319 l 715 210 z "},"¿":{"ha":721,"x_min":-56,"x_max":629,"o":"m 349 43 q 440 51 379 51 q 546 26 501 51 q 590 -43 590 1 q 569 -122 590 -87 q 503 -181 547 -156 q 240 -236 406 -236 q 10 -190 75 -236 q -56 -67 -56 -144 q 61 143 -56 53 q 140 199 97 171 l 406 371 q 460 460 460 407 q 526 425 500 460 q 553 342 553 390 q 447 165 553 231 l 290 68 q 190 -39 219 21 q 179 -89 179 -62 q 243 -153 179 -153 q 328 -112 293 -153 q 360 -29 358 -76 q 349 43 361 18 m 360 626 q 399 708 360 679 q 497 736 439 736 q 592 708 556 736 q 629 626 629 679 q 588 544 629 574 q 489 515 547 515 q 395 544 431 515 q 360 626 360 574 z "},"À":{"ha":843,"x_min":-78,"x_max":786,"o":"m 633 -28 q 439 225 456 -28 l 200 225 q 153 106 174 161 l 117 0 l -78 0 l 360 917 l 658 917 l 717 242 q 786 53 731 96 q 633 -28 746 -28 m 243 326 l 435 326 l 418 683 l 418 721 l 319 503 l 243 326 m 294 1131 q 333 1197 294 1169 l 674 1056 l 657 988 l 492 993 q 294 1131 294 1000 z "},"Á":{"ha":843,"x_min":-78,"x_max":786,"o":"m 633 -28 q 439 225 456 -28 l 200 225 q 153 106 174 161 l 117 0 l -78 0 l 360 917 l 658 917 l 717 242 q 786 53 731 96 q 633 -28 746 -28 m 243 326 l 435 326 l 418 683 l 418 721 l 319 503 l 243 326 m 365 1054 l 706 1196 q 744 1128 744 1168 q 728 1065 744 1089 q 686 1025 713 1040 q 547 992 635 994 l 382 986 l 365 1054 z "},"Â":{"ha":843,"x_min":-78,"x_max":786,"o":"m 633 -28 q 439 225 456 -28 l 200 225 q 153 106 174 161 l 117 0 l -78 0 l 360 917 l 658 917 l 717 242 q 786 53 731 96 q 633 -28 746 -28 m 243 326 l 435 326 l 418 683 l 418 721 l 319 503 l 243 326 m 296 1042 l 564 1190 l 753 1046 l 692 972 l 532 1040 l 331 965 l 296 1042 z "},"Ã":{"ha":843,"x_min":-78,"x_max":789,"o":"m 439 225 q 633 -28 456 -28 q 786 53 746 -28 q 717 242 731 96 l 658 917 l 360 917 l -78 0 l 117 0 l 153 106 q 200 225 174 161 l 439 225 m 243 326 l 319 503 l 418 721 l 418 683 l 435 326 l 243 326 m 371 1011 q 278 988 313 1011 q 250 1069 250 1028 q 285 1135 250 1111 q 388 1160 321 1160 q 510 1151 438 1160 q 690 1136 640 1136 q 763 1160 739 1136 q 789 1084 789 1129 q 753 1013 789 1039 q 656 986 718 986 q 590 990 631 986 l 508 999 q 429 1007 467 1003 q 371 1011 392 1011 z "},"Ä":{"ha":843,"x_min":-78,"x_max":786,"o":"m 633 -28 q 439 225 456 -28 l 200 225 q 153 106 174 161 l 117 0 l -78 0 l 360 917 l 658 917 l 717 242 q 786 53 731 96 q 633 -28 746 -28 m 243 326 l 435 326 l 418 683 l 418 721 l 319 503 l 243 326 m 382 983 q 301 1007 333 983 q 269 1074 269 1031 q 304 1142 269 1118 q 388 1165 339 1165 q 467 1142 438 1165 q 497 1074 497 1118 q 464 1007 497 1031 q 382 983 431 983 m 640 983 q 560 1007 592 983 q 529 1074 529 1031 q 563 1142 529 1118 q 647 1165 597 1165 q 726 1142 696 1165 q 757 1074 757 1118 q 723 1007 757 1031 q 640 983 689 983 z "},"Å":{"ha":843,"x_min":-78,"x_max":786,"o":"m 633 -28 q 439 225 456 -28 l 200 225 q 153 106 174 161 l 117 0 l -78 0 l 360 917 l 658 917 l 717 242 q 786 53 731 96 q 633 -28 746 -28 m 243 326 l 435 326 l 418 683 l 418 721 l 319 503 l 243 326 m 513 958 q 478 958 513 958 q 407 983 443 958 q 371 1045 371 1007 q 387 1108 371 1083 q 429 1150 403 1133 q 553 1186 483 1186 q 692 1093 692 1186 q 636 994 692 1032 q 513 958 583 958 m 472 1056 q 514 1008 472 1008 q 569 1031 544 1008 q 594 1078 594 1053 q 549 1132 594 1132 q 494 1109 517 1132 q 472 1056 472 1086 z "},"Æ":{"ha":1092,"x_min":-90,"x_max":1113,"o":"m 994 125 q 749 -28 994 -28 q 479 108 540 -28 q 458 219 458 156 l 458 229 q 460 246 458 235 l 242 246 l 126 0 l -90 0 l 424 917 l 1111 917 q 1111 889 1111 908 q 1101 840 1111 869 q 1068 788 1090 810 q 955 743 1024 743 q 848 755 886 743 q 779 781 810 767 l 746 538 l 1008 538 l 1008 528 q 971 420 1008 458 q 868 382 933 382 q 744 406 803 382 q 729 414 732 411 l 726 399 q 711 235 711 310 q 731 174 711 199 q 803 149 751 149 q 897 167 854 149 q 965 214 939 186 q 994 125 994 178 m 294 353 l 474 353 l 535 781 q 408 567 468 672 l 294 353 z "},"Ç":{"ha":876,"x_min":40,"x_max":894,"o":"m 749 288 q 785 205 785 261 q 760 109 785 149 q 689 39 736 69 q 410 -26 588 -26 q 137 66 233 -26 q 40 322 40 158 q 161 731 40 554 q 417 917 253 861 q 585 944 501 944 q 719 933 668 944 q 810 900 771 922 q 894 774 894 851 q 828 650 894 703 q 717 603 767 603 q 646 610 667 603 q 651 692 651 660 q 650 749 651 725 q 642 794 649 772 q 585 846 628 846 q 501 806 543 846 q 422 700 458 767 q 340 369 340 549 q 389 234 340 283 q 542 185 438 185 q 693 236 619 185 q 749 288 725 258 m 400 -82 q 474 -79 422 -79 q 569 -111 526 -79 q 613 -190 613 -143 q 555 -312 613 -265 q 403 -358 497 -358 q 304 -339 340 -358 q 268 -286 268 -319 q 293 -233 268 -253 q 386 -278 319 -278 q 448 -262 426 -278 q 469 -218 469 -246 q 364 -153 469 -153 q 306 -156 336 -153 l 357 15 l 429 15 l 400 -82 z "},"È":{"ha":747,"x_min":11,"x_max":781,"o":"m 617 214 q 643 126 643 181 q 588 12 643 51 q 444 -28 532 -28 q 318 -17 394 -28 q 122 7 168 7 q 58 5 76 7 q 11 0 40 3 l 182 917 l 781 917 q 740 788 781 832 q 618 743 699 743 q 456 781 538 743 l 413 538 l 660 538 q 624 423 660 464 q 527 382 588 382 q 429 396 467 382 q 388 414 392 410 l 338 151 q 433 147 371 147 q 617 214 540 147 m 236 1128 q 275 1196 236 1168 l 615 1054 l 599 986 l 433 992 q 236 1128 236 999 z "},"É":{"ha":747,"x_min":11,"x_max":781,"o":"m 617 214 q 643 126 643 181 q 588 12 643 51 q 444 -28 532 -28 q 318 -17 394 -28 q 122 7 168 7 q 58 5 76 7 q 11 0 40 3 l 182 917 l 781 917 q 740 788 781 832 q 618 743 699 743 q 456 781 538 743 l 413 538 l 660 538 q 624 423 660 464 q 527 382 588 382 q 429 396 467 382 q 388 414 392 410 l 338 151 q 433 147 371 147 q 617 214 540 147 m 689 1196 q 728 1128 728 1168 q 712 1063 728 1088 q 669 1022 696 1039 q 531 992 621 994 l 365 986 l 349 1054 l 689 1196 z "},"Ê":{"ha":747,"x_min":11,"x_max":781,"o":"m 617 214 q 643 126 643 181 q 588 12 643 51 q 444 -28 532 -28 q 318 -17 394 -28 q 122 7 168 7 q 58 5 76 7 q 11 0 40 3 l 182 917 l 781 917 q 740 788 781 832 q 618 743 699 743 q 456 781 538 743 l 413 538 l 660 538 q 624 423 660 464 q 527 382 588 382 q 429 396 467 382 q 388 414 392 410 l 338 151 q 433 147 371 147 q 617 214 540 147 m 258 1040 l 526 1189 l 715 1044 l 654 971 l 494 1039 l 293 964 l 258 1040 z "},"Ë":{"ha":747,"x_min":11,"x_max":781,"o":"m 617 214 q 643 126 643 181 q 588 12 643 51 q 444 -28 532 -28 q 318 -17 394 -28 q 122 7 168 7 q 58 5 76 7 q 11 0 40 3 l 182 917 l 781 917 q 740 788 781 832 q 618 743 699 743 q 456 781 538 743 l 413 538 l 660 538 q 624 423 660 464 q 527 382 588 382 q 429 396 467 382 q 388 414 392 410 l 338 151 q 433 147 371 147 q 617 214 540 147 m 368 972 q 283 996 317 972 q 250 1063 250 1019 q 286 1131 250 1107 q 374 1154 322 1154 q 458 1131 426 1154 q 489 1063 489 1107 q 454 996 489 1019 q 368 972 419 972 m 647 972 q 563 996 596 972 q 531 1063 531 1019 q 566 1131 531 1107 q 653 1154 601 1154 q 738 1131 706 1154 q 769 1063 769 1107 q 734 996 769 1019 q 647 972 699 972 z "},"Ì":{"ha":497,"x_min":8,"x_max":522,"o":"m 8 0 l 185 917 l 490 917 l 311 0 l 8 0 m 143 1128 q 182 1196 143 1168 l 522 1054 l 506 986 l 340 992 q 143 1128 143 999 z "},"Í":{"ha":497,"x_min":8,"x_max":563,"o":"m 8 0 l 185 917 l 490 917 l 311 0 l 8 0 m 524 1196 q 563 1128 563 1168 q 546 1063 563 1088 q 503 1022 529 1039 q 365 992 454 994 l 200 986 l 183 1054 l 524 1196 z "},"Î":{"ha":497,"x_min":8,"x_max":592,"o":"m 8 0 l 185 917 l 490 917 l 311 0 l 8 0 m 135 1040 l 403 1189 l 592 1044 l 531 971 l 371 1039 l 169 964 l 135 1040 z "},"Ï":{"ha":497,"x_min":8,"x_max":601,"o":"m 8 0 l 185 917 l 490 917 l 311 0 l 8 0 m 226 972 q 146 996 178 972 q 114 1063 114 1019 q 149 1131 114 1107 q 233 1154 183 1154 q 312 1131 282 1154 q 342 1063 342 1107 q 308 996 342 1019 q 226 972 275 972 m 485 972 q 405 996 436 972 q 374 1063 374 1019 q 408 1131 374 1107 q 491 1154 442 1154 q 571 1131 540 1154 q 601 1063 601 1107 q 567 996 601 1019 q 485 972 533 972 z "},"Ð":{"ha":1004,"x_min":-19,"x_max":957,"o":"m 571 538 q 578 496 578 514 q 547 424 578 451 q 463 396 515 396 l -14 396 q -19 447 -19 414 q 9 509 -19 481 q 83 538 38 538 l 571 538 m 957 576 q 315 -15 957 -15 q 43 10 213 -15 l 200 831 q 217 918 210 886 q 485 933 354 933 q 701 914 615 933 q 844 851 788 894 q 957 576 957 767 m 671 628 q 522 835 671 835 l 508 835 q 494 833 501 835 l 351 88 q 363 85 357 85 l 374 85 q 478 117 425 85 q 575 214 532 149 q 671 628 671 365 z "},"Ñ":{"ha":976,"x_min":14,"x_max":965,"o":"m 14 0 l 181 917 l 479 917 l 696 286 l 811 917 l 965 915 l 796 0 l 478 0 l 278 607 l 167 0 l 14 0 m 465 999 q 372 975 407 999 q 344 1057 344 1015 q 380 1123 344 1099 q 482 1147 415 1147 q 604 1139 532 1147 q 784 1124 735 1124 q 857 1147 833 1124 q 883 1072 883 1117 q 848 1000 883 1026 q 750 974 813 974 q 685 978 725 974 l 603 986 q 524 994 561 990 q 465 999 486 999 z "},"Ò":{"ha":986,"x_min":44,"x_max":942,"o":"m 44 339 q 181 767 44 601 q 576 946 325 946 q 850 858 758 946 q 942 583 942 769 q 797 135 942 300 q 414 -28 654 -28 q 135 66 226 -28 q 44 339 44 160 m 410 626 q 347 179 347 376 q 363 101 347 132 q 422 71 379 71 q 490 91 464 71 q 538 157 517 111 q 602 391 571 232 q 636 616 633 550 q 639 732 639 682 q 624 814 639 782 q 567 846 608 846 q 499 821 526 846 q 410 626 447 774 m 389 1128 q 428 1196 389 1168 l 768 1054 l 751 986 l 586 992 q 389 1128 389 999 z "},"Ó":{"ha":986,"x_min":44,"x_max":942,"o":"m 44 339 q 181 767 44 601 q 576 946 325 946 q 850 858 758 946 q 942 583 942 769 q 797 135 942 300 q 414 -28 654 -28 q 135 66 226 -28 q 44 339 44 160 m 410 626 q 347 179 347 376 q 363 101 347 132 q 422 71 379 71 q 490 91 464 71 q 538 157 517 111 q 602 391 571 232 q 636 616 633 550 q 639 732 639 682 q 624 814 639 782 q 567 846 608 846 q 499 821 526 846 q 410 626 447 774 m 467 1054 l 807 1196 q 846 1128 846 1168 q 831 1064 846 1089 q 790 1022 817 1039 q 649 992 743 994 l 483 986 l 467 1054 z "},"Ô":{"ha":986,"x_min":44,"x_max":942,"o":"m 44 339 q 181 767 44 601 q 576 946 325 946 q 850 858 758 946 q 942 583 942 769 q 797 135 942 300 q 414 -28 654 -28 q 135 66 226 -28 q 44 339 44 160 m 410 626 q 347 179 347 376 q 363 101 347 132 q 422 71 379 71 q 490 91 464 71 q 538 157 517 111 q 602 391 571 232 q 636 616 633 550 q 639 732 639 682 q 624 814 639 782 q 567 846 608 846 q 499 821 526 846 q 410 626 447 774 m 367 1040 l 635 1189 l 824 1044 l 763 971 l 603 1039 l 401 964 l 367 1040 z "},"Õ":{"ha":986,"x_min":44,"x_max":942,"o":"m 44 339 q 181 767 44 601 q 576 946 325 946 q 850 858 758 946 q 942 583 942 769 q 797 135 942 300 q 414 -28 654 -28 q 135 66 226 -28 q 44 339 44 160 m 410 626 q 347 179 347 376 q 363 101 347 132 q 422 71 379 71 q 490 91 464 71 q 538 157 517 111 q 602 391 571 232 q 636 616 633 550 q 639 732 639 682 q 624 814 639 782 q 567 846 608 846 q 499 821 526 846 q 410 626 447 774 m 461 1011 q 368 988 403 1011 q 340 1069 340 1028 q 376 1135 340 1111 q 478 1160 411 1160 q 600 1151 528 1160 q 780 1136 731 1136 q 853 1160 829 1136 q 879 1084 879 1129 q 844 1013 879 1039 q 746 986 808 986 q 681 990 721 986 l 599 999 q 519 1007 557 1003 q 461 1011 482 1011 z "},"Ö":{"ha":986,"x_min":44,"x_max":942,"o":"m 44 339 q 181 767 44 601 q 576 946 325 946 q 850 858 758 946 q 942 583 942 769 q 797 135 942 300 q 414 -28 654 -28 q 135 66 226 -28 q 44 339 44 160 m 410 626 q 347 179 347 376 q 363 101 347 132 q 422 71 379 71 q 490 91 464 71 q 538 157 517 111 q 602 391 571 232 q 636 616 633 550 q 639 732 639 682 q 624 814 639 782 q 567 846 608 846 q 499 821 526 846 q 410 626 447 774 m 467 972 q 382 996 415 972 q 349 1063 349 1019 q 385 1131 349 1107 q 473 1154 421 1154 q 556 1131 525 1154 q 588 1063 588 1107 q 553 996 588 1019 q 467 972 518 972 m 746 972 q 662 996 694 972 q 629 1063 629 1019 q 665 1131 629 1107 q 752 1154 700 1154 q 836 1131 804 1154 q 868 1063 868 1107 q 833 996 868 1019 q 746 972 797 972 z "},"×":{"ha":665,"x_min":-35,"x_max":640,"o":"m -35 49 l 221 310 l 140 418 q 104 466 122 443 q 86 526 86 489 q 112 591 86 564 q 183 628 138 618 l 328 421 l 483 581 q 573 622 522 622 q 640 581 624 622 l 539 479 l 397 332 q 444 267 422 296 l 486 213 q 523 163 507 186 q 539 118 539 140 q 508 44 539 74 q 429 14 478 15 q 410 44 421 28 l 382 86 l 288 219 l 175 103 l 131 54 q 40 15 92 15 q -35 49 -12 15 z "},"Ø":{"ha":986,"x_min":32,"x_max":942,"o":"m 111 -81 q 55 -58 76 -81 q 33 9 33 -35 q 65 90 32 53 l 822 951 q 857 1001 843 978 q 912 973 888 1001 q 936 904 936 944 q 900 825 936 864 l 196 33 q 111 -81 149 -15 m 44 339 q 181 767 44 601 q 576 946 325 946 q 850 858 758 946 q 942 583 942 769 q 797 135 942 300 q 414 -28 654 -28 q 135 66 226 -28 q 44 339 44 160 m 410 626 q 347 179 347 376 q 363 101 347 132 q 422 71 379 71 q 490 91 464 71 q 538 157 517 111 q 602 391 571 232 q 636 616 633 550 q 639 732 639 682 q 624 814 639 782 q 567 846 608 846 q 499 821 526 846 q 410 626 447 774 z "},"Ù":{"ha":929,"x_min":50,"x_max":925,"o":"m 50 206 q 64 329 50 260 l 176 917 l 483 917 l 372 325 q 360 212 360 260 q 380 139 360 164 q 438 114 400 114 q 499 124 475 114 q 542 157 522 133 q 603 325 579 204 l 715 917 l 925 917 l 814 326 q 668 50 775 129 q 358 -28 564 -28 q 122 39 204 -28 q 50 206 50 97 m 367 1128 q 406 1196 367 1168 l 746 1054 l 729 986 l 564 992 q 367 1128 367 999 z "},"Ú":{"ha":929,"x_min":50,"x_max":925,"o":"m 50 206 q 64 329 50 260 l 176 917 l 483 917 l 372 325 q 360 212 360 260 q 380 139 360 164 q 438 114 400 114 q 499 124 475 114 q 542 157 522 133 q 603 325 579 204 l 715 917 l 925 917 l 814 326 q 668 50 775 129 q 358 -28 564 -28 q 122 39 204 -28 q 50 206 50 97 m 465 1054 l 806 1196 q 835 1167 825 1182 q 844 1121 844 1153 q 828 1064 844 1089 q 786 1024 813 1039 q 647 992 735 994 l 482 986 l 465 1054 z "},"Û":{"ha":929,"x_min":50,"x_max":925,"o":"m 50 206 q 64 329 50 260 l 176 917 l 483 917 l 372 325 q 360 212 360 260 q 380 139 360 164 q 438 114 400 114 q 499 124 475 114 q 542 157 522 133 q 603 325 579 204 l 715 917 l 925 917 l 814 326 q 668 50 775 129 q 358 -28 564 -28 q 122 39 204 -28 q 50 206 50 97 m 371 1040 l 639 1189 l 828 1044 l 767 971 l 607 1039 l 406 964 l 371 1040 z "},"Ü":{"ha":929,"x_min":50,"x_max":925,"o":"m 50 206 q 64 329 50 260 l 176 917 l 483 917 l 372 325 q 360 212 360 260 q 380 139 360 164 q 438 114 400 114 q 499 124 475 114 q 542 157 522 133 q 603 325 579 204 l 715 917 l 925 917 l 814 326 q 668 50 775 129 q 358 -28 564 -28 q 122 39 204 -28 q 50 206 50 97 m 467 972 q 382 996 415 972 q 349 1063 349 1019 q 385 1131 349 1107 q 473 1154 421 1154 q 556 1131 525 1154 q 588 1063 588 1107 q 553 996 588 1019 q 467 972 518 972 m 746 972 q 662 996 694 972 q 629 1063 629 1019 q 665 1131 629 1107 q 752 1154 700 1154 q 836 1131 804 1154 q 868 1063 868 1107 q 833 996 868 1019 q 746 972 797 972 z "},"Ý":{"ha":828,"x_min":54,"x_max":926,"o":"m 236 408 q 54 865 196 785 q 131 922 83 901 q 235 942 178 942 q 335 922 292 942 q 406 858 378 901 q 458 581 458 776 l 458 481 q 625 831 542 725 q 815 939 710 939 q 885 917 857 939 q 926 864 913 896 q 717 681 819 817 q 547 354 614 544 l 465 0 l 156 0 l 236 408 m 356 1040 l 696 1182 q 725 1153 715 1168 q 735 1107 735 1139 q 719 1050 735 1075 q 675 1010 703 1025 q 538 978 625 981 l 372 972 l 356 1040 z "},"Þ":{"ha":903,"x_min":8,"x_max":874,"o":"m 569 736 q 874 496 874 736 q 788 283 874 363 q 560 203 703 203 q 438 242 490 203 q 394 281 413 258 q 556 350 500 281 q 606 525 606 415 q 486 649 606 649 l 457 649 q 439 647 446 649 l 313 0 l 8 0 l 185 917 l 490 917 l 454 735 q 510 736 482 736 l 569 736 z "},"ß":{"ha":1049,"x_min":-181,"x_max":996,"o":"m -181 -178 q -72 -119 -121 -178 q 0 40 -22 -60 l 151 778 q 285 986 178 915 q 569 1057 392 1057 q 789 1004 704 1057 q 871 868 871 951 q 841 776 871 813 q 774 709 811 740 q 708 647 738 678 q 678 571 678 615 q 701 529 678 547 q 761 489 725 511 l 858 428 q 965 342 933 382 q 996 247 996 301 q 967 140 996 192 q 886 51 938 89 q 613 -28 778 -28 q 455 19 522 -28 q 388 122 388 65 q 426 214 388 179 q 524 249 465 249 q 619 226 583 249 q 601 104 601 186 q 654 40 606 40 q 713 58 690 40 q 749 124 749 89 q 724 192 749 160 q 648 256 699 224 q 563 320 597 289 q 504 383 529 351 q 450 498 450 453 q 465 576 450 543 q 501 638 479 608 q 550 694 524 667 q 599 753 576 722 q 650 890 650 821 q 625 965 650 935 q 570 994 600 994 q 518 978 540 994 q 476 932 496 961 q 417 772 436 872 l 275 39 q 174 -192 244 -121 q -16 -261 104 -261 q -181 -178 -136 -261 z "},"à":{"ha":872,"x_min":22,"x_max":821,"o":"m 84 42 q 68 60 84 42 q 37 135 51 78 q 22 285 22 192 q 54 463 22 378 q 144 608 86 547 q 461 736 264 736 q 583 713 532 736 l 821 736 l 718 194 q 714 147 714 178 q 733 97 714 117 q 779 75 751 78 q 715 0 765 28 q 607 -28 664 -28 q 512 -6 550 -28 q 463 51 474 15 q 393 -6 440 17 q 283 -28 346 -28 q 168 -11 219 -28 q 84 42 117 6 m 377 606 q 369 593 377 606 q 347 538 361 581 q 310 383 333 496 q 288 189 288 269 q 300 85 288 108 q 335 61 313 61 q 412 103 379 61 q 457 221 444 146 l 531 628 q 467 653 501 653 q 413 642 433 653 q 377 606 393 631 m 307 914 q 290 971 290 939 q 340 1064 290 1044 l 668 861 l 639 794 l 468 826 q 307 914 351 847 z "},"á":{"ha":872,"x_min":22,"x_max":821,"o":"m 714 1068 q 764 976 764 1049 q 706 876 764 915 q 586 831 657 843 l 415 799 l 386 865 l 714 1068 m 84 42 q 68 60 84 42 q 37 135 51 78 q 22 285 22 192 q 54 463 22 378 q 144 608 86 547 q 461 736 264 736 q 583 713 532 736 l 821 736 l 718 194 q 714 147 714 178 q 733 97 714 117 q 779 75 751 78 q 715 0 765 28 q 607 -28 664 -28 q 512 -6 550 -28 q 463 51 474 15 q 393 -6 440 17 q 283 -28 346 -28 q 168 -11 219 -28 q 84 42 117 6 m 377 606 q 369 593 377 606 q 347 538 361 581 q 310 383 333 496 q 288 189 288 269 q 300 85 288 108 q 335 61 313 61 q 412 103 379 61 q 457 221 444 146 l 531 628 q 467 653 501 653 q 413 642 433 653 q 377 606 393 631 z "},"â":{"ha":872,"x_min":22,"x_max":821,"o":"m 84 42 q 68 60 84 42 q 37 135 51 78 q 22 285 22 192 q 54 463 22 378 q 144 608 86 547 q 461 736 264 736 q 583 713 532 736 l 821 736 l 718 194 q 714 147 714 178 q 733 97 714 117 q 779 75 751 78 q 715 0 765 28 q 607 -28 664 -28 q 512 -6 550 -28 q 463 51 474 15 q 393 -6 440 17 q 283 -28 346 -28 q 168 -11 219 -28 q 84 42 117 6 m 377 606 q 369 593 377 606 q 347 538 361 581 q 310 383 333 496 q 288 189 288 269 q 300 85 288 108 q 335 61 313 61 q 412 103 379 61 q 457 221 444 146 l 531 628 q 467 653 501 653 q 413 642 433 653 q 377 606 393 631 m 264 888 l 535 1068 l 747 886 l 678 801 l 515 901 l 310 801 l 264 888 z "},"ã":{"ha":872,"x_min":22,"x_max":821,"o":"m 84 42 q 68 60 84 42 q 37 135 51 78 q 22 285 22 192 q 54 463 22 378 q 144 608 86 547 q 461 736 264 736 q 583 713 532 736 l 821 736 l 718 194 q 714 147 714 178 q 733 97 714 117 q 779 75 751 78 q 715 0 765 28 q 607 -28 664 -28 q 512 -6 550 -28 q 463 51 474 15 q 393 -6 440 17 q 283 -28 346 -28 q 168 -11 219 -28 q 84 42 117 6 m 377 606 q 369 593 377 606 q 347 538 361 581 q 310 383 333 496 q 288 189 288 269 q 300 85 288 108 q 335 61 313 61 q 412 103 379 61 q 457 221 444 146 l 531 628 q 467 653 501 653 q 413 642 433 653 q 377 606 393 631 m 383 857 q 290 833 325 857 q 263 915 263 874 q 298 981 263 957 q 400 1006 333 1006 q 522 997 450 1006 q 702 982 653 982 q 775 1006 751 982 q 801 930 801 975 q 766 858 801 885 q 668 832 731 832 q 603 836 643 832 l 521 844 q 442 853 479 849 q 383 857 404 857 z "},"ä":{"ha":872,"x_min":22,"x_max":821,"o":"m 84 42 q 68 60 84 42 q 37 135 51 78 q 22 285 22 192 q 54 463 22 378 q 144 608 86 547 q 461 736 264 736 q 583 713 532 736 l 821 736 l 718 194 q 714 147 714 178 q 733 97 714 117 q 779 75 751 78 q 715 0 765 28 q 607 -28 664 -28 q 512 -6 550 -28 q 463 51 474 15 q 393 -6 440 17 q 283 -28 346 -28 q 168 -11 219 -28 q 84 42 117 6 m 377 606 q 369 593 377 606 q 347 538 361 581 q 310 383 333 496 q 288 189 288 269 q 300 85 288 108 q 335 61 313 61 q 412 103 379 61 q 457 221 444 146 l 531 628 q 467 653 501 653 q 413 642 433 653 q 377 606 393 631 m 345 818 q 316 818 345 818 q 251 842 288 818 q 215 909 215 865 q 255 976 215 953 q 353 1000 294 1000 q 446 976 411 1000 q 481 909 481 953 q 442 842 481 865 q 345 818 403 818 m 669 818 q 640 818 669 818 q 575 842 611 818 q 539 909 539 865 q 578 976 539 953 q 676 1000 618 1000 q 769 976 735 1000 q 804 909 804 953 q 765 842 804 865 q 669 818 726 818 z "},"å":{"ha":872,"x_min":22,"x_max":821,"o":"m 84 42 q 68 60 84 42 q 37 135 51 78 q 22 285 22 192 q 54 463 22 378 q 144 608 86 547 q 461 736 264 736 q 583 713 532 736 l 821 736 l 718 194 q 714 147 714 178 q 733 97 714 117 q 779 75 751 78 q 715 0 765 28 q 607 -28 664 -28 q 512 -6 550 -28 q 463 51 474 15 q 393 -6 440 17 q 283 -28 346 -28 q 168 -11 219 -28 q 84 42 117 6 m 377 606 q 369 593 377 606 q 347 538 361 581 q 310 383 333 496 q 288 189 288 269 q 300 85 288 108 q 335 61 313 61 q 412 103 379 61 q 457 221 444 146 l 531 628 q 467 653 501 653 q 413 642 433 653 q 377 606 393 631 m 496 804 q 461 804 496 804 q 390 830 426 804 q 354 895 354 856 q 370 961 354 935 q 413 1006 386 988 q 536 1043 467 1043 q 640 1017 606 1043 q 675 952 675 992 q 660 886 675 913 q 619 842 644 860 q 496 804 565 804 m 532 986 q 482 962 503 986 q 461 911 461 938 q 500 857 461 857 q 552 881 532 857 q 572 931 572 904 q 532 986 572 986 z "},"æ":{"ha":1190,"x_min":22,"x_max":1167,"o":"m 744 326 q 739 260 739 276 q 843 147 739 147 q 1006 200 936 147 q 1038 235 1026 217 q 1072 160 1072 210 q 1047 77 1072 110 q 979 21 1022 44 q 772 -28 890 -28 q 588 -1 653 -28 q 489 88 522 26 q 410 6 465 39 q 281 -28 356 -28 q 157 -8 206 -28 q 78 50 108 11 q 22 274 22 124 q 144 608 22 482 q 458 736 265 736 q 638 678 560 731 q 921 736 754 736 q 1101 692 1036 736 q 1167 571 1167 649 q 744 326 1167 326 m 531 628 q 465 653 500 653 q 398 621 431 653 q 339 529 365 589 q 282 192 282 396 q 340 57 282 57 q 417 115 385 57 q 482 360 457 189 l 531 628 m 754 386 q 908 444 850 386 q 967 599 967 503 q 911 665 967 665 q 820 593 861 665 q 754 386 779 521 z "},"ç":{"ha":719,"x_min":24,"x_max":706,"o":"m 706 578 q 657 483 706 519 q 529 447 608 447 q 476 457 496 447 q 497 538 492 493 q 501 596 501 583 q 461 654 501 654 q 402 619 433 654 q 344 531 371 585 q 286 279 286 406 q 313 178 286 210 q 397 147 339 147 q 542 214 478 147 q 569 258 560 235 q 622 154 622 231 q 536 25 622 76 q 306 -28 447 -28 q 24 271 24 -28 q 147 614 24 489 q 486 736 267 736 q 706 578 706 736 m 267 -82 q 341 -79 289 -79 q 436 -111 393 -79 q 479 -190 479 -143 q 422 -312 479 -265 q 269 -358 364 -358 q 171 -339 207 -358 q 135 -286 135 -319 q 160 -233 135 -253 q 253 -278 186 -278 q 315 -262 293 -278 q 336 -218 336 -246 q 231 -153 336 -153 q 172 -156 203 -153 l 224 15 l 296 15 l 267 -82 z "},"è":{"ha":739,"x_min":21,"x_max":715,"o":"m 586 235 q 621 159 621 211 q 594 74 621 107 q 525 18 568 40 q 340 -28 436 -28 q 188 -7 244 -28 q 94 53 132 14 q 21 261 21 126 q 135 599 21 471 q 469 736 257 736 q 667 681 601 736 q 715 571 715 639 q 293 326 715 326 q 288 260 288 290 q 316 172 288 196 q 397 147 344 147 q 506 172 450 147 q 586 235 563 196 m 303 386 q 458 447 401 386 q 515 599 515 506 q 503 648 515 631 q 468 665 492 665 q 424 656 444 665 q 383 617 404 647 q 303 386 332 547 m 244 914 q 228 971 228 939 q 278 1064 228 1044 l 606 861 l 576 794 l 406 826 q 244 914 289 847 z "},"é":{"ha":739,"x_min":21,"x_max":724,"o":"m 586 235 q 621 159 621 211 q 594 74 621 107 q 525 18 568 40 q 340 -28 436 -28 q 188 -7 244 -28 q 94 53 132 14 q 21 261 21 126 q 135 599 21 471 q 469 736 257 736 q 667 681 601 736 q 715 571 715 639 q 293 326 715 326 q 288 260 288 290 q 316 172 288 196 q 397 147 344 147 q 506 172 450 147 q 586 235 563 196 m 303 386 q 458 447 401 386 q 515 599 515 506 q 503 648 515 631 q 468 665 492 665 q 424 656 444 665 q 383 617 404 647 q 303 386 332 547 m 674 1068 q 724 976 724 1049 q 665 876 724 915 q 546 831 617 843 l 375 799 l 346 865 l 674 1068 z "},"ê":{"ha":739,"x_min":21,"x_max":715,"o":"m 586 235 q 621 159 621 211 q 594 74 621 107 q 525 18 568 40 q 340 -28 436 -28 q 188 -7 244 -28 q 94 53 132 14 q 21 261 21 126 q 135 599 21 471 q 469 736 257 736 q 667 681 601 736 q 715 571 715 639 q 293 326 715 326 q 288 260 288 290 q 316 172 288 196 q 397 147 344 147 q 506 172 450 147 q 586 235 563 196 m 303 386 q 458 447 401 386 q 515 599 515 506 q 503 648 515 631 q 468 665 492 665 q 424 656 444 665 q 383 617 404 647 q 303 386 332 547 m 232 886 l 503 1067 l 715 885 l 646 800 l 483 900 l 278 800 l 232 886 z "},"ë":{"ha":739,"x_min":21,"x_max":765,"o":"m 586 235 q 621 159 621 211 q 594 74 621 107 q 525 18 568 40 q 340 -28 436 -28 q 188 -7 244 -28 q 94 53 132 14 q 21 261 21 126 q 135 599 21 471 q 469 736 257 736 q 667 681 601 736 q 715 571 715 639 q 293 326 715 326 q 288 260 288 290 q 316 172 288 196 q 397 147 344 147 q 506 172 450 147 q 586 235 563 196 m 303 386 q 458 447 401 386 q 515 599 515 506 q 503 648 515 631 q 468 665 492 665 q 424 656 444 665 q 383 617 404 647 q 303 386 332 547 m 306 820 q 277 820 306 820 q 213 843 249 820 q 176 910 176 866 q 216 976 176 953 q 314 1000 256 1000 q 407 976 372 1000 q 442 910 442 953 q 403 843 442 866 q 306 820 364 820 m 630 820 q 601 820 630 820 q 536 843 572 820 q 500 910 500 866 q 540 976 500 953 q 638 1000 579 1000 q 731 976 696 1000 q 765 910 765 953 q 726 843 765 866 q 630 820 688 820 z "},"ì":{"ha":449,"x_min":24,"x_max":492,"o":"m 354 76 q 174 -28 311 -28 q 61 21 104 -28 q 24 107 24 61 q 75 439 24 219 l 126 708 l 406 736 l 321 297 q 297 158 297 194 q 354 76 297 79 m 131 914 q 114 971 114 939 q 164 1064 114 1044 l 492 861 l 463 794 l 292 826 q 131 914 175 847 z "},"í":{"ha":449,"x_min":24,"x_max":501,"o":"m 354 76 q 174 -28 311 -28 q 61 21 104 -28 q 24 107 24 61 q 75 439 24 219 l 126 708 l 406 736 l 321 297 q 297 158 297 194 q 354 76 297 79 m 451 1068 q 501 976 501 1049 q 443 876 501 915 q 324 831 394 843 l 153 799 l 124 865 l 451 1068 z "},"î":{"ha":449,"x_min":24,"x_max":478,"o":"m 354 76 q 174 -28 311 -28 q 61 21 104 -28 q 24 107 24 61 q 75 439 24 219 l 126 708 l 406 736 l 321 297 q 297 158 297 194 q 354 76 297 79 m 94 860 l 308 1064 l 478 860 l 421 796 l 293 896 l 129 796 l 94 860 z "},"ï":{"ha":449,"x_min":24,"x_max":567,"o":"m 354 76 q 174 -28 311 -28 q 61 21 104 -28 q 24 107 24 61 q 75 439 24 219 l 126 708 l 406 736 l 321 297 q 297 158 297 194 q 354 76 297 79 m 53 910 q 89 977 53 954 q 176 1000 125 1000 q 260 977 228 1000 q 292 910 292 954 q 257 843 292 865 q 170 821 222 821 q 85 843 118 821 q 53 910 53 865 m 329 910 q 365 977 329 954 q 453 1000 400 1000 q 536 977 506 1000 q 567 910 567 954 q 532 843 567 865 q 446 821 497 821 q 362 843 394 821 q 329 910 329 865 z "},"ð":{"ha":818,"x_min":19,"x_max":849,"o":"m 831 1000 q 849 949 849 985 q 779 882 849 907 l 739 868 q 783 667 783 783 q 669 194 783 381 q 516 31 607 90 q 313 -28 425 -28 q 19 251 19 -28 q 136 589 19 460 q 440 721 254 721 q 544 706 511 721 q 553 761 553 743 q 550 801 553 788 l 407 750 q 386 793 386 771 q 432 854 386 839 l 511 883 q 449 904 483 904 q 397 892 415 904 q 392 914 392 900 q 431 978 392 957 q 544 1000 469 1000 q 681 944 619 1000 l 831 1000 m 528 613 q 443 639 496 639 q 360 590 390 639 q 311 438 331 542 q 281 185 281 264 q 292 80 281 106 q 333 54 304 54 q 385 85 361 54 q 433 183 410 117 q 528 613 476 306 z "},"ñ":{"ha":871,"x_min":-11,"x_max":783,"o":"m 353 857 q 260 833 294 857 q 232 915 232 874 q 267 981 232 957 q 369 1006 303 1006 q 492 997 419 1006 q 672 982 622 982 q 744 1006 721 982 q 771 930 771 975 q 735 858 771 885 q 638 832 700 832 q 572 836 613 832 l 490 844 q 411 853 449 849 q 353 857 374 857 m 611 -28 q 443 103 443 -28 q 456 200 444 139 l 481 328 q 518 549 518 508 q 471 629 518 629 q 350 422 392 629 l 268 0 l -11 -28 l 133 710 l 361 736 l 339 600 q 604 736 404 736 q 742 695 701 736 q 783 563 783 654 q 739 275 783 476 q 718 151 718 185 q 737 97 718 117 q 783 75 756 78 q 722 0 769 28 q 611 -28 674 -28 z "},"ò":{"ha":821,"x_min":21,"x_max":763,"o":"m 326 -28 q 21 260 21 -28 q 133 596 21 464 q 460 736 253 736 q 686 667 610 736 q 763 451 763 597 q 643 100 763 229 q 326 -28 526 -28 m 363 576 q 354 558 363 576 q 333 483 346 539 q 303 338 319 426 q 286 139 286 249 q 298 79 286 103 q 342 56 310 56 q 394 71 374 56 q 429 122 414 86 q 479 305 457 186 q 503 475 501 424 q 506 565 506 526 q 494 628 506 603 q 452 653 483 653 q 400 633 421 653 q 363 576 379 614 m 268 914 q 251 971 251 939 q 301 1064 251 1044 l 629 861 l 600 794 l 429 826 q 268 914 313 847 z "},"ó":{"ha":821,"x_min":21,"x_max":763,"o":"m 326 -28 q 21 260 21 -28 q 133 596 21 464 q 460 736 253 736 q 686 667 610 736 q 763 451 763 597 q 643 100 763 229 q 326 -28 526 -28 m 363 576 q 354 558 363 576 q 333 483 346 539 q 303 338 319 426 q 286 139 286 249 q 298 79 286 103 q 342 56 310 56 q 394 71 374 56 q 429 122 414 86 q 479 305 457 186 q 503 475 501 424 q 506 565 506 526 q 494 628 506 603 q 452 653 483 653 q 400 633 421 653 q 363 576 379 614 m 660 1068 q 710 976 710 1049 q 651 876 710 915 q 532 831 603 843 l 361 799 l 332 865 l 660 1068 z "},"ô":{"ha":821,"x_min":21,"x_max":763,"o":"m 326 -28 q 21 260 21 -28 q 133 596 21 464 q 460 736 253 736 q 686 667 610 736 q 763 451 763 597 q 643 100 763 229 q 326 -28 526 -28 m 363 576 q 354 558 363 576 q 333 483 346 539 q 303 338 319 426 q 286 139 286 249 q 298 79 286 103 q 342 56 310 56 q 394 71 374 56 q 429 122 414 86 q 479 305 457 186 q 503 475 501 424 q 506 565 506 526 q 494 628 506 603 q 452 653 483 653 q 400 633 421 653 q 363 576 379 614 m 239 886 l 510 1067 l 722 885 l 653 800 l 490 900 l 285 800 l 239 886 z "},"õ":{"ha":821,"x_min":21,"x_max":763,"o":"m 326 -28 q 21 260 21 -28 q 133 596 21 464 q 460 736 253 736 q 686 667 610 736 q 763 451 763 597 q 643 100 763 229 q 326 -28 526 -28 m 363 576 q 354 558 363 576 q 333 483 346 539 q 303 338 319 426 q 286 139 286 249 q 298 79 286 103 q 342 56 310 56 q 394 71 374 56 q 429 122 414 86 q 479 305 457 186 q 503 475 501 424 q 506 565 506 526 q 494 628 506 603 q 452 653 483 653 q 400 633 421 653 q 363 576 379 614 m 343 856 q 250 832 285 856 q 222 914 222 872 q 258 980 222 956 q 360 1004 293 1004 q 482 996 410 1004 q 662 981 613 981 q 735 1004 711 981 q 761 928 761 974 q 726 857 761 883 q 628 831 690 831 q 563 835 603 831 l 481 843 q 401 851 439 847 q 343 856 364 856 z "},"ö":{"ha":821,"x_min":21,"x_max":785,"o":"m 326 -28 q 21 260 21 -28 q 133 596 21 464 q 460 736 253 736 q 686 667 610 736 q 763 451 763 597 q 643 100 763 229 q 326 -28 526 -28 m 363 576 q 354 558 363 576 q 333 483 346 539 q 303 338 319 426 q 286 139 286 249 q 298 79 286 103 q 342 56 310 56 q 394 71 374 56 q 429 122 414 86 q 479 305 457 186 q 503 475 501 424 q 506 565 506 526 q 494 628 506 603 q 452 653 483 653 q 400 633 421 653 q 363 576 379 614 m 326 820 q 297 820 326 820 q 232 843 268 820 q 196 910 196 866 q 235 976 196 953 q 333 1000 275 1000 q 426 976 392 1000 q 461 910 461 953 q 422 843 461 866 q 326 820 383 820 m 649 820 q 620 820 649 820 q 556 843 592 820 q 519 910 519 866 q 559 976 519 953 q 657 1000 599 1000 q 750 976 715 1000 q 785 910 785 953 q 746 843 785 866 q 649 820 707 820 z "},"÷":{"ha":669,"x_min":14,"x_max":611,"o":"m 19 265 q 14 319 14 288 q 43 377 14 351 q 117 403 72 403 l 604 403 q 611 343 611 375 q 583 288 611 311 q 497 265 556 265 l 19 265 m 161 106 q 193 170 161 147 q 270 193 225 193 q 344 170 315 193 q 372 106 372 147 q 341 42 372 64 q 265 19 310 19 q 190 42 219 19 q 161 106 161 64 m 254 561 q 286 626 254 603 q 363 649 318 649 q 437 626 408 649 q 465 561 465 603 q 434 497 465 519 q 358 475 403 475 q 283 497 313 475 q 254 561 254 519 z "},"ø":{"ha":821,"x_min":15,"x_max":785,"o":"m 82 -81 q 33 -60 50 -81 q 17 -15 17 -39 q 43 63 15 32 l 647 735 l 686 781 q 718 825 701 800 q 762 803 739 825 q 785 757 785 782 q 754 678 785 711 l 153 15 q 82 -81 111 -29 m 326 -28 q 21 260 21 -28 q 133 596 21 464 q 460 736 253 736 q 686 667 610 736 q 763 451 763 597 q 643 100 763 229 q 326 -28 526 -28 m 363 576 q 354 558 363 576 q 333 483 346 539 q 303 338 319 426 q 286 139 286 249 q 298 79 286 103 q 342 56 310 56 q 394 71 374 56 q 429 122 414 86 q 479 305 457 186 q 503 475 501 424 q 506 565 506 526 q 494 628 506 603 q 452 653 483 653 q 400 633 421 653 q 363 576 379 614 z "},"ù":{"ha":882,"x_min":26,"x_max":831,"o":"m 469 58 q 238 -28 403 -28 q 89 24 151 -28 q 26 151 26 76 q 31 214 26 193 l 124 708 l 406 736 l 304 200 q 299 151 299 169 q 347 71 299 71 q 440 144 401 71 q 458 199 453 168 l 557 708 l 831 736 l 728 194 q 724 151 724 174 q 736 105 724 129 q 789 75 749 81 q 751 19 781 42 q 624 -28 690 -28 q 519 -4 558 -28 q 469 58 481 19 m 314 914 q 297 971 297 939 q 347 1064 297 1044 l 675 861 l 646 794 l 475 826 q 314 914 358 847 z "},"ú":{"ha":882,"x_min":26,"x_max":831,"o":"m 469 58 q 238 -28 403 -28 q 89 24 151 -28 q 26 151 26 76 q 31 214 26 193 l 124 708 l 406 736 l 304 200 q 299 151 299 169 q 347 71 299 71 q 440 144 401 71 q 458 199 453 168 l 557 708 l 831 736 l 728 194 q 724 151 724 174 q 736 105 724 129 q 789 75 749 81 q 751 19 781 42 q 624 -28 690 -28 q 519 -4 558 -28 q 469 58 481 19 m 724 1068 q 774 976 774 1049 q 715 876 774 915 q 596 831 667 843 l 425 799 l 396 865 l 724 1068 z "},"û":{"ha":882,"x_min":26,"x_max":831,"o":"m 469 58 q 238 -28 403 -28 q 89 24 151 -28 q 26 151 26 76 q 31 214 26 193 l 124 708 l 406 736 l 304 200 q 299 151 299 169 q 347 71 299 71 q 440 144 401 71 q 458 199 453 168 l 557 708 l 831 736 l 728 194 q 724 151 724 174 q 736 105 724 129 q 789 75 749 81 q 751 19 781 42 q 624 -28 690 -28 q 519 -4 558 -28 q 469 58 481 19 m 264 888 l 535 1068 l 747 886 l 678 801 l 515 901 l 310 801 l 264 888 z "},"ü":{"ha":882,"x_min":26,"x_max":831,"o":"m 469 58 q 238 -28 403 -28 q 89 24 151 -28 q 26 151 26 76 q 31 214 26 193 l 124 708 l 406 736 l 304 200 q 299 151 299 169 q 347 71 299 71 q 440 144 401 71 q 458 199 453 168 l 557 708 l 831 736 l 728 194 q 724 151 724 174 q 736 105 724 129 q 789 75 749 81 q 751 19 781 42 q 624 -28 690 -28 q 519 -4 558 -28 q 469 58 481 19 m 358 818 q 329 818 358 818 q 264 842 300 818 q 228 909 228 865 q 267 976 228 953 q 365 1000 307 1000 q 458 976 424 1000 q 493 909 493 953 q 454 842 493 865 q 358 818 415 818 m 681 818 q 652 818 681 818 q 588 842 624 818 q 551 909 551 865 q 591 976 551 953 q 689 1000 631 1000 q 782 976 747 1000 q 817 909 817 953 q 778 842 817 865 q 681 818 739 818 z "},"ý":{"ha":858,"x_min":-26,"x_max":832,"o":"m 465 157 q 261 82 393 82 q 61 203 96 82 q 50 279 50 239 q 58 361 50 319 l 124 708 l 406 736 l 329 332 q 322 294 326 314 q 318 255 318 275 q 325 222 318 235 q 342 200 332 208 q 388 189 358 189 q 444 225 418 189 q 482 324 469 261 l 558 708 l 832 736 l 728 190 q 571 -182 676 -76 q 447 -258 517 -236 q 286 -279 376 -279 q 57 -233 140 -279 q -26 -111 -26 -187 q 17 -22 -26 -54 q 126 11 60 11 q 229 -14 185 11 q 268 -49 256 -29 q 236 -122 236 -76 q 292 -183 236 -183 q 436 28 383 -183 q 465 157 451 90 m 721 1068 q 771 976 771 1049 q 713 876 771 915 q 593 831 664 843 l 422 799 l 393 865 l 721 1068 z "},"þ":{"ha":858,"x_min":-57,"x_max":799,"o":"m -57 -278 l 183 972 l 465 1000 l 422 788 q 388 678 408 726 q 485 731 421 715 q 528 736 504 736 q 728 658 657 736 q 799 428 799 579 q 686 107 799 231 q 346 -28 565 -28 q 265 -24 308 -28 l 225 -250 l -57 -278 m 290 79 q 356 54 319 54 q 413 68 392 54 q 449 110 433 82 q 524 414 490 185 q 533 544 533 479 q 519 631 533 610 q 476 651 504 651 q 364 486 392 651 l 290 79 z "},"ÿ":{"ha":858,"x_min":-26,"x_max":832,"o":"m 465 157 q 261 82 393 82 q 61 203 96 82 q 50 279 50 239 q 58 361 50 319 l 124 708 l 406 736 l 329 332 q 322 294 326 314 q 318 255 318 275 q 325 222 318 235 q 342 200 332 208 q 388 189 358 189 q 444 225 418 189 q 482 324 469 261 l 558 708 l 832 736 l 728 190 q 571 -182 676 -76 q 447 -258 517 -236 q 286 -279 376 -279 q 57 -233 140 -279 q -26 -111 -26 -187 q 17 -22 -26 -54 q 126 11 60 11 q 229 -14 185 11 q 268 -49 256 -29 q 236 -122 236 -76 q 292 -183 236 -183 q 436 28 383 -183 q 465 157 451 90 m 355 820 q 326 820 355 820 q 261 843 297 820 q 225 910 225 866 q 265 976 225 953 q 363 1000 304 1000 q 456 976 421 1000 q 490 910 490 953 q 451 843 490 866 q 355 820 413 820 m 678 820 q 650 820 678 820 q 585 843 621 820 q 549 910 549 866 q 588 976 549 953 q 686 1000 628 1000 q 779 976 744 1000 q 814 910 814 953 q 775 843 814 866 q 678 820 736 820 z "},"Č":{"ha":876,"x_min":40,"x_max":894,"o":"m 749 288 q 785 205 785 261 q 760 109 785 149 q 689 39 736 69 q 410 -26 588 -26 q 137 66 233 -26 q 40 322 40 158 q 161 731 40 554 q 417 917 253 861 q 585 944 501 944 q 719 933 668 944 q 810 900 771 922 q 894 774 894 851 q 828 650 894 703 q 717 603 767 603 q 646 610 667 603 q 651 692 651 660 q 650 749 651 725 q 642 794 649 772 q 585 846 628 846 q 501 806 543 846 q 422 700 458 767 q 340 369 340 549 q 389 234 340 283 q 542 185 438 185 q 693 236 619 185 q 749 288 725 258 m 406 1196 l 475 1260 l 638 1160 l 843 1260 l 886 1196 l 618 993 l 406 1196 z "},"č":{"ha":719,"x_min":24,"x_max":743,"o":"m 706 578 q 657 483 706 519 q 529 447 608 447 q 476 457 496 447 q 497 538 492 493 q 501 596 501 583 q 461 654 501 654 q 402 619 433 654 q 344 531 371 585 q 286 279 286 406 q 313 178 286 210 q 397 147 339 147 q 542 214 478 147 q 569 258 560 235 q 622 154 622 231 q 536 25 622 76 q 306 -28 447 -28 q 24 271 24 -28 q 147 614 24 489 q 486 736 267 736 q 706 578 706 736 m 263 988 l 332 1051 l 494 951 l 700 1051 l 743 988 l 475 785 l 263 988 z "},"Ę":{"ha":749,"x_min":11,"x_max":781,"o":"m 617 214 q 643 126 643 181 q 588 12 643 51 q 444 -28 532 -28 q 318 -17 394 -28 q 122 7 168 7 q 58 5 76 7 q 11 0 40 3 l 182 917 l 781 917 q 740 788 781 832 q 618 743 699 743 q 456 781 538 743 l 413 538 l 660 538 q 624 423 660 464 q 527 382 588 382 q 429 396 467 382 q 388 414 392 410 l 338 151 q 433 147 371 147 q 617 214 540 147 m 611 -231 q 636 -278 636 -250 q 599 -333 636 -307 q 478 -358 561 -358 q 350 -317 396 -358 q 304 -196 304 -275 q 372 -50 304 -112 q 525 31 433 7 l 579 8 q 447 -197 447 -75 q 517 -265 447 -265 q 611 -231 586 -265 z "},"ę":{"ha":739,"x_min":21,"x_max":715,"o":"m 586 235 q 621 159 621 211 q 594 74 621 107 q 525 18 568 40 q 340 -28 436 -28 q 188 -7 244 -28 q 94 53 132 14 q 21 261 21 126 q 135 599 21 471 q 469 736 257 736 q 667 681 601 736 q 715 571 715 639 q 293 326 715 326 q 288 260 288 290 q 316 172 288 196 q 397 147 344 147 q 506 172 450 147 q 586 235 563 196 m 303 386 q 458 447 401 386 q 515 599 515 506 q 503 648 515 631 q 468 665 492 665 q 424 656 444 665 q 383 617 404 647 q 303 386 332 547 m 532 -231 q 557 -278 557 -250 q 519 -333 557 -307 q 399 -358 482 -358 q 271 -317 317 -358 q 225 -196 225 -275 q 293 -50 225 -112 q 446 31 354 7 l 500 8 q 368 -197 368 -75 q 438 -265 368 -265 q 532 -231 507 -265 z "},"ı":{"ha":449,"x_min":24,"x_max":406,"o":"m 354 76 q 174 -28 311 -28 q 61 21 104 -28 q 24 107 24 61 q 75 439 24 219 l 126 708 l 406 736 l 321 297 q 297 158 297 194 q 354 76 297 79 z "},"Ł":{"ha":735,"x_min":-40,"x_max":665,"o":"m -11 276 q -40 335 -40 303 q 22 422 -40 401 l 579 626 q 606 556 606 604 q 508 463 606 496 l -11 276 m 639 214 q 665 116 665 181 q 616 12 665 51 q 481 -28 567 -28 q 353 -17 431 -28 q 156 7 200 7 q 94 5 113 7 q 47 0 76 3 l 215 917 l 519 917 l 381 153 q 415 150 399 150 l 450 150 q 639 214 567 150 z "},"ł":{"ha":531,"x_min":-24,"x_max":550,"o":"m 6 301 q -24 360 -24 328 q 39 447 -24 424 l 524 626 q 550 556 550 604 q 453 463 550 496 l 6 301 m 408 76 q 228 -28 365 -28 q 114 21 158 -28 q 78 107 78 61 q 126 439 78 211 l 228 972 l 510 1000 l 375 297 q 351 158 351 194 q 408 76 351 79 z "},"Œ":{"ha":1250,"x_min":42,"x_max":1271,"o":"m 963 151 q 1124 214 1064 151 q 1153 125 1153 178 q 903 -28 1153 -28 q 769 3 832 -28 q 697 72 708 31 q 581 -2 650 24 q 396 -28 511 -28 q 132 69 222 -28 q 42 344 42 165 q 82 581 42 471 q 192 771 122 690 q 358 898 263 851 q 549 944 453 944 q 714 917 646 944 l 1269 917 q 1269 904 1269 910 q 1227 789 1269 835 q 1103 743 1185 743 q 944 781 1022 743 l 911 538 l 1167 538 l 1167 528 q 1130 421 1167 460 q 1026 382 1093 382 q 935 395 971 382 q 892 414 899 408 l 889 399 q 874 235 874 304 q 900 176 874 200 q 963 151 926 151 m 368 540 q 360 508 368 540 q 342 408 351 476 q 332 278 332 339 q 335 180 332 217 q 347 121 339 143 q 404 79 363 79 q 489 128 446 79 q 565 258 532 178 q 639 653 639 436 q 627 797 639 765 q 601 837 615 828 q 561 846 586 846 q 509 822 536 846 q 456 757 482 799 q 407 660 429 715 q 368 540 385 604 z "},"œ":{"ha":1193,"x_min":22,"x_max":1171,"o":"m 554 29 q 290 -28 458 -28 q 91 49 160 -28 q 22 268 22 125 q 142 607 22 479 q 454 736 263 736 q 569 725 522 736 q 657 686 615 714 q 788 725 728 714 q 944 736 847 736 q 1106 692 1040 736 q 1171 571 1171 649 q 749 326 1171 326 q 743 260 743 279 q 847 147 743 147 q 1010 200 940 147 q 1042 235 1031 217 q 1076 161 1076 210 q 1053 80 1076 113 q 988 22 1029 47 q 764 -28 900 -28 q 554 29 628 -28 m 344 501 q 332 467 344 501 q 304 347 319 433 q 289 184 289 260 q 300 81 289 108 q 339 54 311 54 q 397 98 367 54 q 453 211 428 142 q 507 538 507 368 q 497 628 507 603 q 459 654 488 654 q 399 612 431 654 q 344 501 368 569 m 758 386 q 913 444 854 386 q 971 599 971 503 q 915 665 971 665 q 824 593 865 665 q 758 386 782 521 z "},"Š":{"ha":819,"x_min":3,"x_max":814,"o":"m 565 642 q 586 722 586 683 q 582 783 586 761 q 568 821 578 804 q 506 857 547 857 q 413 819 454 857 q 368 719 368 781 q 395 651 368 681 q 464 593 422 621 q 553 538 506 565 q 642 476 600 510 q 738 297 738 400 q 701 169 738 228 q 603 67 664 110 q 293 -28 469 -28 q 76 19 150 -28 q 3 136 3 65 q 101 294 3 263 q 172 304 129 304 q 263 286 214 304 q 240 178 240 229 q 319 67 240 67 q 413 104 371 67 q 456 184 456 142 q 428 257 456 226 q 361 312 401 288 q 274 360 321 336 q 188 417 228 383 q 93 615 93 493 q 132 756 93 694 q 233 860 171 818 q 512 944 358 944 q 740 899 665 944 q 814 775 814 853 q 761 664 814 707 q 660 628 715 628 q 565 642 604 628 m 340 1121 l 390 1188 l 563 1113 l 768 1182 l 811 1121 l 539 972 l 340 1121 z "},"š":{"ha":675,"x_min":-22,"x_max":697,"o":"m 439 488 q 458 583 458 539 q 392 665 458 665 q 328 634 357 665 q 300 564 300 603 q 322 514 300 536 q 436 433 354 483 q 549 342 518 383 q 581 245 581 301 q 553 138 581 189 q 478 50 526 86 q 207 -28 374 -28 q 47 19 117 -28 q -22 119 -22 65 q 17 206 -22 174 q 115 238 57 238 q 210 215 174 238 q 192 139 192 169 q 269 47 192 47 q 325 68 303 47 q 347 125 347 89 q 228 271 347 196 q 108 360 131 335 q 71 460 71 404 q 97 568 71 515 q 172 658 124 621 q 450 736 274 736 q 594 700 540 736 q 647 603 647 664 q 610 507 647 542 q 507 472 574 472 q 439 488 461 472 m 217 1000 l 286 1064 l 449 964 l 654 1064 l 697 1000 l 429 797 l 217 1000 z "},"Ÿ":{"ha":828,"x_min":54,"x_max":926,"o":"m 236 408 q 54 865 196 785 q 131 922 83 901 q 235 942 178 942 q 335 922 292 942 q 406 858 378 901 q 458 581 458 776 l 458 481 q 625 831 542 725 q 815 939 710 939 q 885 917 857 939 q 926 864 913 896 q 717 681 819 817 q 547 354 614 544 l 465 0 l 156 0 l 236 408 m 377 971 q 348 971 377 971 q 283 994 319 971 q 247 1061 247 1018 q 287 1128 247 1104 q 385 1151 326 1151 q 478 1128 443 1151 q 513 1061 513 1104 q 474 994 513 1018 q 377 971 435 971 m 701 971 q 672 971 701 971 q 607 994 643 971 q 571 1061 571 1018 q 610 1128 571 1104 q 708 1151 650 1151 q 801 1128 767 1151 q 836 1061 836 1104 q 797 994 836 1018 q 701 971 758 971 z "},"Ż":{"ha":801,"x_min":8,"x_max":796,"o":"m 317 -3 q 280 3 317 -3 q 204 15 243 10 q 124 21 165 21 q 63 0 83 21 q 14 99 31 24 q 8 154 8 119 q 94 303 8 229 l 528 658 q 276 688 349 688 q 138 656 204 688 q 100 788 100 717 q 152 894 100 858 q 292 931 204 931 q 372 925 331 931 q 456 914 414 919 l 538 901 q 630 896 578 896 q 740 910 682 896 q 796 781 796 861 q 729 631 796 683 l 257 253 q 526 225 358 225 q 663 267 610 225 q 692 210 686 236 q 699 148 699 185 q 686 81 699 111 q 647 29 674 51 q 478 -17 594 -17 q 317 -3 392 -17 m 512 1026 q 483 1026 512 1026 q 418 1050 454 1026 q 382 1117 382 1074 q 422 1185 382 1161 q 519 1208 461 1208 q 613 1185 578 1208 q 647 1117 647 1161 q 608 1050 647 1074 q 512 1026 569 1026 z "},"ż":{"ha":700,"x_min":-8,"x_max":674,"o":"m 291 -14 q 258 -7 291 -14 q 191 6 225 0 q 117 13 157 13 q 39 -1 78 13 q 5 36 18 11 q -8 100 -8 61 q 75 244 -8 182 l 428 499 q 240 526 329 526 q 118 465 150 526 q 71 608 71 521 q 113 705 71 667 q 244 743 156 743 q 340 737 294 743 q 425 725 385 731 l 500 714 q 573 708 536 708 q 638 724 610 708 q 674 644 674 690 q 585 497 674 572 l 233 235 q 397 203 342 203 q 564 258 514 203 q 603 137 603 214 q 553 16 603 60 q 413 -28 503 -28 q 291 -14 357 -28 m 434 818 q 405 818 434 818 q 340 842 376 818 q 304 909 304 865 q 344 976 304 953 q 442 1000 383 1000 q 535 976 500 1000 q 569 909 569 953 q 531 842 569 865 q 434 818 492 818 z "},"Ž":{"ha":801,"x_min":8,"x_max":796,"o":"m 317 -3 q 280 3 317 -3 q 204 15 243 10 q 124 21 165 21 q 63 0 83 21 q 14 99 31 24 q 8 154 8 119 q 94 303 8 229 l 528 658 q 276 688 349 688 q 138 656 204 688 q 100 788 100 717 q 152 894 100 858 q 292 931 204 931 q 372 925 331 931 q 456 914 414 919 l 538 901 q 630 896 578 896 q 740 910 682 896 q 796 781 796 861 q 729 631 796 683 l 257 253 q 526 225 358 225 q 663 267 610 225 q 692 210 686 236 q 699 148 699 185 q 686 81 699 111 q 647 29 674 51 q 478 -17 594 -17 q 317 -3 392 -17 m 301 1121 l 351 1188 l 524 1113 l 729 1182 l 772 1121 l 500 972 l 301 1121 z "},"ž":{"ha":700,"x_min":-8,"x_max":696,"o":"m 291 -14 q 258 -7 291 -14 q 191 6 225 0 q 117 13 157 13 q 39 -1 78 13 q 5 36 18 11 q -8 100 -8 61 q 75 244 -8 182 l 428 499 q 240 526 329 526 q 118 465 150 526 q 71 608 71 521 q 113 705 71 667 q 244 743 156 743 q 340 737 294 743 q 425 725 385 731 l 500 714 q 573 708 536 708 q 638 724 610 708 q 674 644 674 690 q 585 497 674 572 l 233 235 q 397 203 342 203 q 564 258 514 203 q 603 137 603 214 q 553 16 603 60 q 413 -28 503 -28 q 291 -14 357 -28 m 215 999 l 285 1063 l 447 963 l 653 1063 l 696 999 l 428 796 l 215 999 z "},"ƒ":{"ha":729,"x_min":-210,"x_max":915,"o":"m 742 539 q 636 475 742 475 l 503 475 l 419 50 q 283 -178 390 -100 q 31 -250 183 -250 q -142 -215 -75 -250 q -210 -119 -210 -179 q -176 -29 -210 -58 q -67 0 -142 0 q 4 -18 -28 0 q -19 -97 -19 -60 q -9 -147 -19 -133 q 30 -161 1 -161 q 89 -111 58 -161 q 144 56 119 -61 l 232 475 l 97 475 q 90 520 90 496 q 116 562 90 544 q 183 579 142 579 l 254 579 l 299 789 q 414 967 322 903 q 675 1032 506 1032 q 846 992 778 1032 q 915 896 915 951 q 763 767 915 767 q 692 785 721 767 q 717 869 717 832 q 668 943 717 943 q 608 899 636 943 q 564 783 579 854 l 524 579 l 733 579 q 742 539 742 558 z "},"ˆ":{"ha":564,"x_min":-42,"x_max":442,"o":"m -42 889 l 229 1069 l 442 888 l 372 803 l 210 903 l 4 803 l -42 889 z "},"ˇ":{"ha":521,"x_min":44,"x_max":525,"o":"m 44 988 l 114 1051 l 276 951 l 482 1051 l 525 988 l 257 785 l 44 988 z "},"˘":{"ha":496,"x_min":-39,"x_max":400,"o":"m -39 963 q -35 1000 -39 979 l 104 1000 q 99 949 99 974 q 115 904 99 925 q 155 883 132 883 q 196 892 178 883 q 228 917 214 901 q 269 1000 261 953 l 400 1000 q 236 828 374 869 q 143 815 193 815 q 8 854 56 815 q -39 963 -39 893 z "},"˙":{"ha":349,"x_min":51,"x_max":317,"o":"m 181 818 q 152 818 181 818 q 88 842 124 818 q 51 909 51 865 q 91 976 51 953 q 189 1000 131 1000 q 282 976 247 1000 q 317 909 317 953 q 278 842 317 865 q 181 818 239 818 z "},"˚":{"ha":383,"x_min":-49,"x_max":272,"o":"m 94 783 q 59 783 94 783 q -12 812 24 783 q -49 885 -49 840 q -33 959 -49 929 q 10 1008 -17 989 q 133 1050 64 1050 q 272 942 272 1050 q 217 825 272 868 q 94 783 164 783 m 53 896 q 94 836 53 836 q 150 865 125 836 q 175 925 175 893 q 129 993 175 993 q 75 964 97 993 q 53 896 53 935 z "},"˛":{"ha":667,"x_min":93,"x_max":425,"o":"m 400 -231 q 425 -278 425 -250 q 388 -333 425 -307 q 267 -358 350 -358 q 139 -317 185 -358 q 93 -196 93 -275 q 161 -50 93 -112 q 314 31 222 7 l 368 8 q 236 -197 236 -75 q 306 -265 236 -265 q 400 -231 375 -265 z "},"˜":{"ha":639,"x_min":-31,"x_max":508,"o":"m 90 861 q -3 838 32 861 q -31 919 -31 878 q 5 985 -31 961 q 107 1010 40 1010 q 229 1001 157 1010 q 409 986 360 986 q 482 1010 458 986 q 508 934 508 979 q 473 863 508 889 q 375 836 438 836 q 310 840 350 836 l 228 849 q 149 857 186 853 q 90 861 111 861 z "},"˝":{"ha":669,"x_min":-53,"x_max":532,"o":"m -53 789 l 168 1096 q 229 1051 206 1085 q 253 971 253 1018 q 142 824 253 885 l 11 751 l -53 789 m 226 789 l 447 1096 q 508 1051 485 1085 q 532 972 532 1018 q 421 824 532 885 l 290 751 l 226 789 z "},"Ω":{"ha":1004,"x_min":13,"x_max":943,"o":"m 657 658 q 569 846 654 846 q 481 803 521 846 q 414 690 442 760 q 354 361 354 546 q 383 185 354 240 q 410 146 394 165 l 368 0 l 133 0 q 38 30 63 0 q 13 93 13 60 q 47 208 13 160 q 106 167 74 176 q 254 150 163 150 q 112 251 158 176 q 65 461 65 326 q 101 635 65 549 q 203 791 136 722 q 363 903 269 860 q 574 946 457 946 q 845 861 747 946 q 943 594 943 776 q 858 310 943 428 q 619 150 772 189 q 791 169 724 150 q 874 208 858 188 q 896 119 896 169 q 860 35 896 69 q 731 0 824 0 l 478 0 l 478 146 q 607 361 553 190 q 657 658 657 517 z "},"π":{"ha":797,"x_min":29,"x_max":792,"o":"m 751 738 q 792 640 792 697 q 745 545 792 582 q 621 503 699 508 q 603 361 607 417 q 597 286 599 306 q 594 253 596 267 q 593 231 593 239 l 593 211 q 694 74 593 76 q 540 -36 658 -36 q 450 0 488 -36 q 411 85 411 35 q 447 343 411 175 l 481 511 l 335 525 l 232 0 l 29 -28 l 208 538 l 175 539 q 103 528 138 539 q 53 503 69 518 q 42 597 42 533 q 101 697 42 660 q 253 735 160 735 q 401 722 303 735 q 619 701 581 701 q 751 738 706 701 z "},"–":{"ha":817,"x_min":40,"x_max":728,"o":"m 40 303 q 69 377 40 349 q 143 406 99 406 l 728 406 q 706 292 747 333 q 619 264 676 264 l 46 264 q 40 303 40 282 z "},"—":{"ha":1511,"x_min":40,"x_max":1429,"o":"m 40 303 q 69 377 40 349 q 143 406 99 406 l 1422 406 q 1429 365 1429 382 q 1401 294 1429 324 q 1314 264 1372 264 l 46 264 q 40 303 40 282 z "},"‘":{"ha":346,"x_min":96,"x_max":429,"o":"m 429 1006 q 322 746 322 890 q 338 660 322 701 q 288 641 321 649 q 229 633 254 633 q 131 667 167 633 q 96 761 96 701 q 117 865 96 821 q 175 942 138 908 q 369 1014 254 1014 q 429 1006 392 1014 z "},"’":{"ha":367,"x_min":68,"x_max":401,"o":"m 68 643 q 175 903 175 758 q 160 989 175 947 q 210 1008 176 1000 q 268 1015 243 1015 q 366 981 331 1015 q 401 887 401 946 q 381 784 401 828 q 322 707 360 740 q 128 635 243 635 q 68 643 106 635 z "},"‚":{"ha":339,"x_min":-100,"x_max":235,"o":"m -100 -181 q 7 79 7 -65 q -8 165 7 124 q 42 184 8 176 q 100 192 75 192 q 198 158 163 192 q 233 64 233 125 q 231 32 233 58 q 208 -39 229 6 q 150 -117 186 -83 q -40 -189 72 -189 q -100 -181 -62 -189 z "},"“":{"ha":678,"x_min":97,"x_max":761,"o":"m 431 1007 q 324 747 324 892 q 339 661 324 703 q 289 642 322 650 q 231 635 256 635 q 133 669 168 635 q 97 763 97 704 q 118 866 97 822 q 175 943 139 910 q 371 1015 256 1015 q 431 1007 393 1015 m 761 1007 q 654 747 654 892 q 669 661 654 703 q 619 642 653 650 q 561 635 586 635 q 463 669 499 635 q 428 763 428 704 q 449 865 428 821 q 506 943 469 910 q 701 1015 586 1015 q 761 1007 724 1015 z "},"”":{"ha":697,"x_min":68,"x_max":732,"o":"m 68 643 q 175 903 175 758 q 160 989 175 947 q 210 1008 176 1000 q 268 1015 243 1015 q 366 981 331 1015 q 401 887 401 946 q 381 783 401 828 q 322 706 360 739 q 128 635 244 635 q 68 643 106 635 m 399 643 q 506 903 506 758 q 490 989 506 947 q 540 1008 507 1000 q 599 1015 574 1015 q 697 981 661 1015 q 732 888 732 946 q 711 785 732 829 q 653 707 690 740 q 458 635 574 635 q 399 643 436 635 z "},"„":{"ha":671,"x_min":-100,"x_max":564,"o":"m -100 -181 q 7 79 7 -65 q -8 165 7 124 q 42 184 8 176 q 100 192 75 192 q 198 157 163 192 q 233 64 233 122 q 213 -39 233 6 q 156 -117 192 -83 q -40 -189 75 -189 q -100 -181 -62 -189 m 231 -181 q 338 79 338 -65 q 322 165 338 124 q 372 184 339 176 q 431 192 406 192 q 528 157 493 192 q 564 64 564 122 q 543 -39 564 6 q 486 -117 522 -83 q 290 -189 406 -189 q 231 -181 268 -189 z "},"†":{"ha":647,"x_min":50,"x_max":642,"o":"m 250 501 q 60 460 163 492 q 50 508 50 479 q 54 561 50 536 q 67 610 58 586 q 106 689 81 654 q 278 647 185 663 q 282 749 282 682 q 258 896 282 817 q 407 932 325 932 q 540 896 489 932 q 436 644 469 756 q 628 692 504 653 q 642 639 642 669 q 637 583 642 608 q 624 536 632 558 q 579 461 607 489 q 410 501 485 490 l 339 -82 q 338 -99 338 -90 l 338 -114 q 342 -157 338 -140 q 190 -200 269 -200 q 92 -104 92 -200 q 105 -13 92 -64 q 136 99 118 38 l 250 501 z "},"‡":{"ha":669,"x_min":-14,"x_max":654,"o":"m 149 103 q -4 67 53 86 q -14 115 -14 86 q -10 168 -14 143 q 3 217 -6 193 q 42 296 17 261 q 194 260 122 269 l 263 501 q 72 460 175 492 q 63 508 63 479 q 67 561 63 536 q 78 610 71 586 q 118 689 93 654 q 290 647 197 663 q 294 749 294 682 q 271 896 294 817 q 419 932 338 932 q 553 896 501 932 q 449 644 482 756 q 640 692 517 653 q 654 639 654 669 q 649 583 654 608 q 636 536 644 558 q 592 461 619 489 q 422 501 497 490 l 406 389 q 388 258 396 324 q 564 300 483 272 q 578 247 578 278 q 573 192 578 217 q 560 143 568 167 q 515 68 543 96 q 365 104 436 92 q 351 -52 351 28 q 354 -157 351 -132 q 215 -200 282 -200 q 126 -173 147 -200 q 104 -103 104 -146 q 119 -6 104 -61 q 149 103 133 50 z "},"•":{"ha":465,"x_min":40,"x_max":390,"o":"m 92 465 q 118 485 92 465 q 221 504 144 504 q 344 467 297 504 q 390 358 390 429 q 339 251 390 288 q 212 214 288 214 q 88 251 136 214 q 40 357 40 288 q 92 465 40 426 z "},"…":{"ha":982,"x_min":-18,"x_max":876,"o":"m -18 82 q 23 164 -18 135 q 122 193 64 193 q 216 164 181 193 q 251 82 251 135 q 212 1 251 29 q 114 -28 172 -28 q 19 1 56 -28 q -18 82 -18 29 m 294 82 q 335 164 294 135 q 435 193 376 193 q 528 164 493 193 q 564 82 564 135 q 524 1 564 29 q 426 -28 485 -28 q 331 1 368 -28 q 294 82 294 29 m 607 82 q 648 164 607 135 q 747 193 689 193 q 841 164 806 193 q 876 82 876 135 q 837 1 876 29 q 739 -28 797 -28 q 644 1 681 -28 q 607 82 607 29 z "},"‰":{"ha":2033,"x_min":71,"x_max":1963,"o":"m 271 397 q 120 453 169 397 q 71 589 71 508 q 90 732 71 669 q 147 842 108 794 q 390 943 233 943 q 606 722 606 943 q 515 483 606 572 q 271 397 426 397 m 178 15 l 1014 894 q 1074 933 1038 918 q 1144 949 1111 949 q 1238 894 1217 949 l 403 22 q 281 -28 356 -28 q 178 15 208 -28 m 292 468 q 389 561 349 468 q 426 778 426 650 q 385 872 426 872 q 292 767 331 872 q 254 569 254 669 q 292 468 254 468 m 1028 -28 q 877 28 926 -28 q 828 164 828 83 q 847 307 828 244 q 906 417 865 369 q 1147 518 990 518 q 1347 400 1301 518 q 1364 290 1364 358 q 1340 162 1364 222 q 1272 58 1317 101 q 1028 -28 1183 -28 m 1050 43 q 1104 69 1079 43 q 1147 136 1129 94 q 1183 353 1183 226 q 1142 447 1183 447 q 1049 342 1090 447 q 1011 144 1011 246 q 1050 43 1011 43 m 1626 -28 q 1476 28 1525 -28 q 1426 164 1426 83 q 1445 307 1426 244 q 1503 417 1464 369 q 1746 518 1589 518 q 1946 400 1900 518 q 1963 290 1963 358 q 1939 162 1963 222 q 1872 58 1915 101 q 1626 -28 1782 -28 m 1649 43 q 1703 69 1678 43 q 1744 136 1728 94 q 1782 353 1782 226 q 1740 447 1782 447 q 1647 342 1689 447 q 1610 144 1610 246 q 1649 43 1610 43 z "},"‹":{"ha":432,"x_min":33,"x_max":432,"o":"m 33 440 l 265 708 l 432 708 l 261 440 l 328 175 l 165 175 l 33 440 z "},"›":{"ha":431,"x_min":-1,"x_max":392,"o":"m -1 175 l 164 440 l 93 708 l 260 708 l 392 440 l 161 175 l -1 175 z "},"⁄":{"ha":388,"x_min":-94,"x_max":474,"o":"m -94 -86 q -86 -51 -94 -72 l 368 997 q 410 1000 382 1000 q 456 992 439 1000 q 474 963 474 985 q 461 906 474 940 l 13 -122 q -31 -126 4 -126 q -94 -86 -94 -126 z "},"€":{"ha":922,"x_min":15,"x_max":914,"o":"m 794 275 q 822 194 822 253 q 795 97 822 135 q 719 32 768 60 q 465 -28 617 -28 q 228 53 313 -28 q 136 290 144 135 l 22 290 q 15 334 15 308 q 41 377 15 360 q 108 394 67 394 l 139 394 q 150 475 142 436 l 58 475 q 51 519 51 493 q 77 562 51 544 q 144 579 103 579 l 176 579 q 364 846 236 749 q 667 944 494 944 q 842 903 767 944 q 914 808 914 864 q 753 679 914 679 q 679 697 708 679 q 701 776 701 739 q 683 833 701 813 q 636 857 665 854 q 517 776 574 857 q 428 579 458 697 l 651 579 q 660 539 660 558 q 554 475 660 475 l 407 475 q 400 394 400 426 l 615 394 q 624 354 624 374 q 518 290 624 290 l 411 290 q 594 171 451 171 q 740 222 671 171 q 794 275 771 246 z "},"™":{"ha":1117,"x_min":135,"x_max":1068,"o":"m 163 783 q 135 850 135 808 q 186 926 135 904 q 233 935 206 935 q 287 931 261 935 q 339 924 313 928 q 438 913 407 913 q 488 925 468 913 q 505 903 496 917 q 514 860 514 890 q 486 802 514 829 q 414 775 458 775 q 322 789 369 775 q 224 803 275 803 q 163 783 172 803 m 260 401 q 179 497 179 401 q 222 688 179 565 q 260 778 240 736 l 292 844 l 363 824 q 329 586 329 657 q 367 454 329 515 q 260 401 314 401 m 1068 439 q 985 401 1053 401 q 894 475 910 401 q 890 528 890 494 q 906 756 890 625 l 829 583 q 763 413 793 500 l 669 413 l 611 756 l 539 413 l 456 413 l 574 917 l 722 917 l 772 618 q 903 917 844 769 l 1040 917 q 1025 608 1025 619 l 1025 592 q 1050 464 1025 504 q 1068 439 1057 451 z "},"⅓":{"ha":1164,"x_min":71,"x_max":1089,"o":"m 117 396 q 74 392 86 396 q 71 406 71 399 l 71 419 q 88 471 71 451 q 131 490 106 490 l 349 490 q 415 499 386 490 q 426 453 426 482 q 406 408 426 425 q 354 390 386 390 l 117 396 m 97 844 q 383 943 211 863 l 407 913 l 315 421 l 157 421 l 238 790 q 167 767 218 767 q 121 790 142 767 q 97 844 100 813 m 264 -86 q 272 -51 264 -72 l 726 997 q 769 1000 740 1000 q 815 992 797 1000 q 832 963 832 985 q 819 906 832 940 l 371 -122 q 328 -126 363 -126 q 264 -86 264 -126 m 960 292 q 1065 161 1065 264 q 1003 36 1065 86 q 824 -15 935 -15 q 718 10 757 -15 q 679 78 679 36 q 711 146 679 121 q 817 88 740 88 q 881 108 857 88 q 904 164 904 128 q 806 236 904 236 l 819 308 q 936 386 936 328 q 878 435 936 435 q 772 385 819 435 q 744 432 744 390 q 804 514 744 479 q 936 547 864 547 q 1049 515 1008 547 q 1089 437 1089 483 q 1053 351 1089 390 q 960 292 1018 313 z "},"⅔":{"ha":1178,"x_min":35,"x_max":856,"o":"m 288 -86 q 296 -51 288 -72 l 750 997 q 792 1000 764 1000 q 838 992 821 1000 q 856 963 856 985 q 843 906 856 940 l 394 -122 q 351 -126 386 -126 q 288 -86 288 -126 m 682 291 q 788 160 788 264 q 725 37 788 86 q 546 -15 657 -15 q 441 11 481 -15 q 402 78 402 36 q 433 145 402 120 q 478 102 449 115 q 543 88 506 88 q 603 107 579 88 q 626 165 626 127 q 528 236 626 236 l 542 308 q 659 385 659 328 q 643 422 659 409 q 596 434 627 434 q 495 385 542 434 q 473 400 480 389 q 467 433 467 410 q 483 477 467 455 q 527 514 499 498 q 668 548 587 548 q 770 516 730 548 q 811 434 811 483 q 775 351 811 390 q 682 291 740 312 m 35 346 l 134 422 l 196 473 q 250 524 227 500 q 292 606 292 566 q 277 642 292 630 q 239 655 261 655 q 200 650 216 655 q 169 636 184 645 q 125 586 139 616 q 92 604 105 587 q 79 644 79 620 q 94 691 79 668 q 136 731 109 714 q 275 767 195 767 q 401 733 355 767 q 446 638 446 698 q 424 554 446 594 q 344 472 402 513 l 259 412 l 207 378 l 142 338 l 169 334 q 222 332 188 332 q 283 336 255 332 q 334 346 310 339 q 403 380 386 361 q 418 358 412 374 q 425 322 425 342 q 380 238 425 262 q 242 213 335 213 q 130 227 194 213 q 40 249 66 241 l 35 346 z "},"⅛":{"ha":1157,"x_min":71,"x_max":1085,"o":"m 117 396 q 74 392 86 396 q 71 406 71 399 l 71 419 q 88 471 71 451 q 131 490 106 490 l 349 490 q 415 499 386 490 q 426 453 426 482 q 406 408 426 425 q 354 390 386 390 l 117 396 m 97 844 q 383 943 211 863 l 407 913 l 315 421 l 157 421 l 238 790 q 167 767 218 767 q 121 790 142 767 q 97 844 100 813 m 264 -86 q 272 -51 264 -72 l 726 997 q 769 1000 740 1000 q 815 992 797 1000 q 832 963 832 985 q 819 906 832 940 l 371 -122 q 328 -126 363 -126 q 264 -86 264 -126 m 657 108 q 776 258 657 201 q 724 349 724 301 q 741 429 724 396 q 788 486 758 463 q 929 539 850 539 q 1047 508 1008 539 q 1085 429 1085 478 q 1051 347 1085 381 q 974 293 1017 313 q 1041 228 1022 253 q 1060 167 1060 204 q 1042 96 1060 131 q 992 36 1024 61 q 838 -18 928 -18 q 702 17 747 -18 q 657 108 657 53 m 824 215 q 783 131 783 182 q 796 84 783 103 q 833 65 808 65 q 878 83 858 65 q 897 126 897 101 q 879 167 897 151 l 824 215 m 925 332 q 969 401 969 353 q 956 443 969 426 q 917 460 942 460 q 876 446 892 460 q 860 407 860 432 q 878 368 860 382 l 925 332 z "},"∂":{"ha":829,"x_min":15,"x_max":789,"o":"m 450 904 q 406 892 424 904 q 400 914 400 900 q 439 978 400 957 q 540 1000 478 1000 q 647 974 601 1000 q 725 904 693 949 q 789 681 789 813 q 675 194 789 381 q 522 31 613 90 q 315 -28 431 -28 q 15 258 15 -28 q 135 603 15 471 q 446 736 254 736 q 551 721 518 736 q 556 772 556 746 q 450 904 556 904 m 536 628 q 450 654 504 654 q 364 604 396 654 q 289 285 324 539 q 282 171 282 233 q 294 82 282 108 q 336 56 307 56 q 390 88 365 56 q 439 189 415 119 q 536 628 486 319 z "},"∆":{"ha":925,"x_min":-50,"x_max":815,"o":"m -50 0 l 415 917 l 714 917 q 744 600 719 833 l 806 92 q 815 0 813 29 l -50 0 m 182 101 l 532 101 l 474 683 l 474 724 l 299 361 l 233 221 q 182 101 204 157 z "},"∏":{"ha":1217,"x_min":100,"x_max":1258,"o":"m 121 786 q 100 858 100 811 q 133 923 100 900 q 201 946 165 946 l 1157 946 q 1229 965 1200 946 q 1258 895 1258 936 q 1237 829 1258 854 q 1183 804 1215 804 l 1058 804 q 999 507 1026 633 q 958 303 971 381 q 939 96 939 169 l 939 81 q 954 4 939 33 q 994 -49 969 -25 q 922 -108 974 -79 q 810 -136 871 -136 q 720 -124 750 -136 q 669 -90 690 -111 q 632 7 632 -51 q 656 194 632 63 l 669 274 q 707 468 685 364 l 771 804 l 567 804 l 389 -108 l 101 -108 l 278 804 l 213 804 q 121 786 149 804 z "},"∑":{"ha":1038,"x_min":-72,"x_max":938,"o":"m 903 772 q 824 806 881 806 l 492 806 l 678 468 l 311 125 l 594 125 q 797 179 724 125 q 840 232 826 200 q 907 157 886 204 q 928 64 928 110 q 654 -110 928 -110 l -72 -110 l 439 390 l 125 947 l 821 947 q 938 857 938 947 q 928 812 938 836 q 903 772 918 788 z "},"−":{"ha":744,"x_min":53,"x_max":650,"o":"m 643 406 q 650 364 650 378 q 619 292 650 319 q 535 264 588 264 l 58 264 q 53 315 53 282 q 81 376 53 347 q 156 406 108 406 l 643 406 z "},"√":{"ha":1528,"x_min":21,"x_max":1668,"o":"m 21 685 q 84 724 53 713 q 180 736 115 736 q 283 686 244 736 q 336 475 335 621 q 338 394 338 435 q 336 317 338 354 l 336 244 q 333 136 333 178 l 786 1129 l 1661 1129 q 1668 1089 1668 1106 q 1640 1024 1668 1047 q 1553 1000 1611 1000 l 919 1000 l 410 -28 l 119 -10 q 92 436 111 279 l 78 542 q 21 685 63 658 z "},"∞":{"ha":956,"x_min":29,"x_max":904,"o":"m 496 489 q 742 639 613 639 q 865 590 826 639 q 904 478 904 542 q 884 361 904 415 q 828 263 864 307 q 638 161 747 161 q 528 197 579 161 q 433 322 478 232 q 320 201 378 240 q 193 161 263 161 q 76 208 124 161 q 29 329 29 254 q 50 434 29 379 q 108 535 71 489 q 311 639 193 639 q 418 599 376 639 q 496 489 460 560 m 158 326 q 246 281 194 281 q 337 310 297 281 q 407 375 376 339 q 351 468 374 446 q 257 514 310 514 q 172 480 204 514 q 139 398 139 446 q 158 326 139 350 m 529 432 q 696 290 615 290 q 767 331 738 290 q 793 410 793 367 q 767 487 793 453 q 694 521 742 521 q 610 503 646 521 q 529 432 574 486 z "},"∫":{"ha":732,"x_min":-115,"x_max":821,"o":"m 638 785 q 669 879 669 840 q 658 931 669 918 q 623 943 647 943 q 574 897 599 943 q 536 783 549 851 l 389 0 q 285 -183 367 -115 q 74 -250 203 -250 q -61 -218 -7 -250 q -115 -126 -115 -186 q -87 -33 -115 -65 q 4 0 -60 0 q 68 -18 44 0 q 35 -110 35 -58 q 81 -161 35 -161 q 135 -115 113 -161 q 171 -1 158 -69 l 324 789 q 425 968 346 904 q 633 1032 504 1032 q 767 993 714 1032 q 821 893 821 954 q 794 799 821 832 q 701 767 767 767 q 638 785 661 767 z "},"≈":{"ha":747,"x_min":56,"x_max":647,"o":"m 86 118 q 56 197 56 157 q 96 264 56 238 q 210 290 136 290 q 286 282 243 290 l 457 247 q 522 239 496 239 q 578 251 549 239 q 618 283 607 263 q 647 209 647 250 q 608 138 647 168 q 497 108 568 108 q 375 125 453 108 q 194 158 228 158 q 130 147 161 158 q 86 118 99 136 m 86 361 q 56 440 56 400 q 96 506 56 479 q 210 533 136 533 q 286 525 243 533 l 375 508 l 457 490 q 522 482 496 482 q 578 494 549 482 q 618 526 607 506 q 647 451 647 493 q 608 381 647 410 q 497 351 568 351 q 378 368 458 351 q 192 400 224 400 q 130 390 161 400 q 86 361 99 379 z "},"≠":{"ha":681,"x_min":19,"x_max":611,"o":"m 19 161 q 48 234 19 206 q 121 263 76 263 l 604 263 q 611 221 611 239 q 583 151 611 179 q 497 122 556 122 l 25 122 q 19 161 19 140 m 19 406 q 48 478 19 450 q 121 506 76 506 l 604 506 q 611 464 611 482 q 583 394 611 422 q 497 367 556 367 l 25 367 q 19 406 19 385 m 72 15 q 93 90 72 54 l 421 646 q 439 677 431 664 q 454 703 447 690 l 483 754 q 533 735 513 754 q 571 659 571 700 q 549 578 571 618 l 189 -25 l 158 -81 q 94 -52 115 -81 q 72 15 72 -24 z "},"≤":{"ha":601,"x_min":-8,"x_max":500,"o":"m -3 0 q -8 52 -8 21 q 17 106 -8 83 q 88 128 43 128 l 493 128 q 500 74 500 103 q 474 23 500 46 q 392 0 449 0 l -3 0 m 39 414 l 304 600 q 360 631 339 624 q 407 638 382 638 q 456 619 432 638 q 494 576 481 600 l 251 414 l 397 289 q 425 246 425 269 q 347 153 425 204 l 39 414 z "},"≥":{"ha":583,"x_min":-31,"x_max":506,"o":"m -25 0 q -31 52 -31 21 q -5 106 -31 83 q 65 128 21 128 l 471 128 q 478 74 478 103 q 452 23 478 46 q 369 0 426 0 l -25 0 m 50 232 l 293 394 l 150 506 q 122 549 122 525 q 200 642 122 590 l 506 394 l 240 208 q 184 178 206 185 q 138 171 163 171 q 88 190 113 171 q 50 232 64 208 z "},"◊":{"ha":869,"x_min":36,"x_max":833,"o":"m 36 458 l 419 917 l 671 917 l 833 456 l 450 0 l 199 0 l 36 458 m 265 531 l 394 126 l 603 383 l 475 789 l 265 531 z "},"":{"ha":736,"x_min":0,"x_max":736,"o":"m 0 736 l 736 736 l 736 0 l 0 0 l 0 736 z "},"ﬀ":{"ha":976,"x_min":21,"x_max":1224,"o":"m 1006 806 q 1025 875 1025 839 q 986 939 1025 939 q 906 817 931 939 l 885 708 l 1011 708 l 1003 646 l 872 646 l 754 0 l 472 -28 l 601 646 l 428 646 l 303 0 l 21 -28 l 158 646 l 56 646 l 68 708 l 174 708 l 194 794 q 322 952 222 904 q 561 1000 422 1000 q 758 964 700 1000 q 974 1000 840 1000 q 1165 967 1107 1000 q 1224 889 1224 933 q 1189 817 1224 844 q 1114 789 1154 789 q 1006 806 1039 789 m 439 708 l 614 708 l 642 846 q 650 894 650 875 q 629 925 650 914 q 586 936 608 936 q 547 931 564 936 q 514 913 529 926 q 461 808 476 881 l 439 708 z "},"ﬁ":{"ha":943,"x_min":19,"x_max":924,"o":"m 19 -28 q 33 36 24 -7 l 100 356 l 156 646 l 57 646 l 69 708 l 169 708 l 199 804 q 317 956 226 913 q 589 1000 407 1000 q 904 922 838 1000 q 924 858 924 899 q 757 775 924 775 q 653 806 707 775 q 633 821 639 813 q 649 875 649 847 q 630 919 649 903 q 587 936 611 936 q 546 931 563 936 q 514 913 529 926 q 463 808 478 882 l 440 708 l 892 708 l 807 275 q 788 144 788 168 q 817 88 788 106 q 846 76 829 79 q 740 -17 828 10 q 665 -28 707 -28 q 594 -14 622 -28 q 549 21 567 0 q 514 106 514 61 q 563 439 514 211 l 603 646 l 429 646 l 303 0 l 19 -28 z "},"ﬂ":{"ha":942,"x_min":21,"x_max":949,"o":"m 653 908 q 581 936 631 936 q 519 917 540 936 q 463 808 478 879 l 440 708 l 538 708 l 524 646 l 429 646 l 303 1 l 21 -26 q 31 22 22 -17 q 56 139 40 61 l 97 342 q 156 646 122 465 l 57 646 l 69 708 l 169 708 l 199 804 q 447 990 246 960 q 588 1000 511 1000 q 749 972 665 1000 l 949 1000 l 797 217 q 789 149 789 174 q 802 100 789 124 q 844 76 815 76 q 740 -18 828 8 q 667 -28 708 -28 q 599 -14 626 -28 q 553 21 571 0 q 515 107 515 61 q 564 439 515 211 l 597 618 q 622 742 613 692 l 636 822 q 644 868 642 851 q 649 893 647 885 q 653 908 651 901 z "}}}
